G04 (created by PCBNEW (2013-07-07 BZR 4022)-stable) date 11-Jan-14 3:47:01 PM*
%MOIN*%
G04 Gerber Fmt 3.4, Leading zero omitted, Abs format*
%FSLAX34Y34*%
G01*
G70*
G90*
G04 APERTURE LIST*
%ADD10C,0.00590551*%
%ADD11C,0.055*%
%ADD12R,0.08X0.08*%
%ADD13C,0.08*%
%ADD14C,0.0590551*%
%ADD15R,0.0708661X0.0708661*%
%ADD16C,0.0708661*%
%ADD17C,0.06*%
%ADD18C,0.215*%
%ADD19R,0.0629921X0.0629921*%
%ADD20C,0.0629921*%
%ADD21R,0.055X0.055*%
%ADD22C,0.07*%
%ADD23R,0.07X0.07*%
%ADD24C,0.15748*%
%ADD25C,0.0283465*%
%ADD26C,0.019685*%
%ADD27C,0.01*%
G04 APERTURE END LIST*
G54D10*
G54D11*
X71550Y-53125D03*
X73550Y-53125D03*
G54D12*
X99150Y-51730D03*
G54D13*
X100150Y-51730D03*
X101150Y-51730D03*
X102150Y-51730D03*
X102150Y-28069D03*
X101150Y-28069D03*
X100150Y-28069D03*
X99150Y-28069D03*
X103150Y-51730D03*
X103142Y-28069D03*
G54D14*
X111400Y-41750D03*
X105400Y-41750D03*
G54D15*
X107244Y-28290D03*
G54D16*
X107244Y-27290D03*
G54D14*
X85580Y-35030D03*
X85580Y-29030D03*
X104450Y-48850D03*
X104450Y-42850D03*
X100520Y-35980D03*
X100520Y-29980D03*
X101910Y-35940D03*
X101910Y-29940D03*
X89280Y-40460D03*
X89280Y-46460D03*
X87820Y-40460D03*
X87820Y-46460D03*
X86410Y-40440D03*
X86410Y-46440D03*
X91810Y-40590D03*
X91810Y-34590D03*
X97770Y-35220D03*
X97770Y-29220D03*
X75250Y-30125D03*
X75250Y-31125D03*
G54D15*
X71175Y-40100D03*
G54D16*
X70175Y-40100D03*
X71175Y-39100D03*
X70175Y-39100D03*
X71175Y-38100D03*
X70175Y-38100D03*
X71175Y-37100D03*
X70175Y-37100D03*
X71175Y-36100D03*
X70175Y-36100D03*
X71175Y-35100D03*
X70175Y-35100D03*
X71175Y-34100D03*
X70175Y-34100D03*
G54D17*
X71175Y-33100D03*
X70175Y-33100D03*
G54D16*
X71175Y-32100D03*
X70175Y-32100D03*
X71175Y-31100D03*
X70175Y-31100D03*
G54D18*
X70775Y-43600D03*
X70775Y-27600D03*
G54D19*
X81002Y-36388D03*
G54D20*
X81002Y-37388D03*
X81002Y-38388D03*
X81002Y-39388D03*
X81002Y-40388D03*
X81002Y-41388D03*
X81002Y-42388D03*
X81002Y-43388D03*
X81002Y-44388D03*
X84002Y-44388D03*
X84002Y-43388D03*
X84002Y-42388D03*
X84002Y-41388D03*
X84002Y-40388D03*
X84002Y-39388D03*
X84002Y-38388D03*
X84002Y-37388D03*
X84002Y-36388D03*
G54D21*
X108705Y-37865D03*
G54D11*
X108705Y-36865D03*
X108705Y-35865D03*
X108705Y-34865D03*
X108705Y-33865D03*
X108705Y-32865D03*
X108705Y-31865D03*
X108705Y-30865D03*
X105705Y-30865D03*
X105705Y-31865D03*
X105705Y-32865D03*
X105705Y-33865D03*
X105705Y-34865D03*
X105705Y-35865D03*
X105705Y-36865D03*
X105705Y-37865D03*
G54D15*
X68892Y-45994D03*
G54D16*
X69892Y-45994D03*
X68892Y-46994D03*
X69892Y-46994D03*
X68892Y-47994D03*
X69892Y-47994D03*
X68892Y-48994D03*
X69892Y-48994D03*
X68892Y-49994D03*
X69892Y-49994D03*
X68892Y-50994D03*
X69892Y-50994D03*
X68892Y-51994D03*
X69892Y-51994D03*
X68892Y-52994D03*
X69892Y-52994D03*
G54D12*
X80080Y-51730D03*
G54D13*
X81080Y-51730D03*
X82080Y-51730D03*
X83080Y-51730D03*
X83080Y-28069D03*
X82080Y-28069D03*
X81080Y-28069D03*
X80080Y-28069D03*
X84080Y-51730D03*
X84072Y-28069D03*
G54D15*
X82404Y-33200D03*
G54D16*
X82404Y-32200D03*
G54D17*
X98900Y-48525D03*
X102900Y-48525D03*
X108400Y-29325D03*
X108400Y-25325D03*
G54D22*
X109475Y-51900D03*
X109475Y-50900D03*
G54D23*
X109475Y-49900D03*
G54D22*
X106325Y-49925D03*
X106325Y-50925D03*
G54D23*
X106325Y-51925D03*
G54D11*
X70825Y-48000D03*
X70825Y-46000D03*
X72600Y-52200D03*
X72600Y-50200D03*
X71725Y-50100D03*
X71725Y-48100D03*
X72575Y-49050D03*
X72575Y-47050D03*
X73500Y-51150D03*
X73500Y-49150D03*
G54D24*
X111450Y-25525D03*
X66550Y-25575D03*
X111400Y-54550D03*
X66500Y-54550D03*
G54D25*
X70220Y-45994D02*
X83765Y-45994D01*
X108705Y-41775D02*
X108705Y-37865D01*
X106200Y-44280D02*
X108705Y-41775D01*
X85480Y-44280D02*
X106200Y-44280D01*
X83765Y-45994D02*
X85480Y-44280D01*
X69892Y-45994D02*
X70220Y-45994D01*
X70220Y-45994D02*
X70829Y-45994D01*
X70829Y-45994D02*
X70841Y-46006D01*
X71725Y-50100D02*
X72500Y-50100D01*
X72500Y-50100D02*
X72600Y-50200D01*
X70841Y-48006D02*
X71631Y-48006D01*
X71631Y-48006D02*
X71725Y-48100D01*
X69892Y-51994D02*
X72394Y-51994D01*
X72394Y-51994D02*
X72600Y-52200D01*
X69892Y-49994D02*
X71619Y-49994D01*
X71619Y-49994D02*
X71725Y-50100D01*
X69892Y-47994D02*
X70829Y-47994D01*
X70829Y-47994D02*
X70841Y-48006D01*
X108705Y-36865D02*
X109365Y-36865D01*
X72945Y-46700D02*
X72595Y-47050D01*
X84260Y-46700D02*
X72945Y-46700D01*
X85920Y-45040D02*
X84260Y-46700D01*
X106860Y-45040D02*
X85920Y-45040D01*
X109860Y-42040D02*
X106860Y-45040D01*
X109860Y-37360D02*
X109860Y-42040D01*
X109365Y-36865D02*
X109860Y-37360D01*
X69892Y-46994D02*
X72494Y-46994D01*
X73525Y-51125D02*
X73525Y-53050D01*
X73525Y-53050D02*
X73575Y-53100D01*
X72600Y-49100D02*
X73500Y-49100D01*
X73500Y-49100D02*
X73525Y-49125D01*
X69892Y-52994D02*
X71469Y-52994D01*
X71469Y-52994D02*
X71575Y-53100D01*
X69892Y-50994D02*
X73394Y-50994D01*
X73394Y-50994D02*
X73525Y-51125D01*
X69892Y-48994D02*
X72494Y-48994D01*
X72494Y-48994D02*
X72600Y-49100D01*
X72494Y-46994D02*
X72600Y-47100D01*
G54D26*
X68892Y-45994D02*
X68892Y-40727D01*
X69520Y-40100D02*
X70175Y-40100D01*
X68892Y-40727D02*
X69520Y-40100D01*
X68892Y-46994D02*
X68654Y-46994D01*
X68940Y-39100D02*
X70175Y-39100D01*
X68240Y-39800D02*
X68940Y-39100D01*
X68240Y-46580D02*
X68240Y-39800D01*
X68654Y-46994D02*
X68240Y-46580D01*
X70175Y-38100D02*
X68600Y-38100D01*
X68214Y-47994D02*
X68892Y-47994D01*
X67840Y-47620D02*
X68214Y-47994D01*
X67840Y-38860D02*
X67840Y-47620D01*
X68600Y-38100D02*
X67840Y-38860D01*
X68892Y-48994D02*
X67994Y-48994D01*
X67940Y-37100D02*
X70175Y-37100D01*
X67360Y-37680D02*
X67940Y-37100D01*
X67360Y-48360D02*
X67360Y-37680D01*
X67994Y-48994D02*
X67360Y-48360D01*
X70175Y-36100D02*
X67560Y-36100D01*
X67614Y-49994D02*
X68892Y-49994D01*
X66960Y-49340D02*
X67614Y-49994D01*
X66960Y-36700D02*
X66960Y-49340D01*
X67560Y-36100D02*
X66960Y-36700D01*
X68892Y-50994D02*
X67144Y-50994D01*
X67200Y-35100D02*
X70175Y-35100D01*
X66600Y-35700D02*
X67200Y-35100D01*
X66600Y-50450D02*
X66600Y-35700D01*
X67144Y-50994D02*
X66600Y-50450D01*
X68892Y-51994D02*
X66769Y-51994D01*
X66600Y-34100D02*
X70175Y-34100D01*
X66225Y-34475D02*
X66600Y-34100D01*
X66225Y-51450D02*
X66225Y-34475D01*
X66769Y-51994D02*
X66225Y-51450D01*
X70175Y-33100D02*
X66900Y-33100D01*
X67119Y-52994D02*
X68892Y-52994D01*
X65825Y-51700D02*
X67119Y-52994D01*
X65825Y-34175D02*
X65825Y-51700D01*
X66900Y-33100D02*
X65825Y-34175D01*
G54D25*
X81080Y-28069D02*
X81080Y-26718D01*
X81080Y-26718D02*
X81488Y-26310D01*
X81488Y-26310D02*
X97010Y-26310D01*
X97010Y-26310D02*
X97770Y-27070D01*
X97770Y-27070D02*
X97770Y-29220D01*
X97770Y-29220D02*
X99830Y-29220D01*
X100150Y-28900D02*
X100150Y-28069D01*
X99830Y-29220D02*
X100150Y-28900D01*
X80080Y-28069D02*
X80080Y-26480D01*
X80080Y-26480D02*
X80745Y-25815D01*
X80745Y-25815D02*
X98435Y-25815D01*
X98435Y-25815D02*
X99150Y-26530D01*
X99150Y-26530D02*
X99150Y-28069D01*
X91810Y-34590D02*
X88340Y-34590D01*
X80080Y-29180D02*
X80080Y-28069D01*
X80550Y-29650D02*
X80080Y-29180D01*
X83400Y-29650D02*
X80550Y-29650D01*
X88340Y-34590D02*
X83400Y-29650D01*
X81080Y-51730D02*
X81080Y-52970D01*
X100150Y-52400D02*
X100150Y-51730D01*
X99130Y-53420D02*
X100150Y-52400D01*
X81530Y-53420D02*
X99130Y-53420D01*
X81080Y-52970D02*
X81530Y-53420D01*
X81080Y-51730D02*
X81080Y-49140D01*
X85370Y-47480D02*
X86410Y-46440D01*
X82740Y-47480D02*
X85370Y-47480D01*
X81080Y-49140D02*
X82740Y-47480D01*
X101150Y-51730D02*
X101150Y-46900D01*
X88480Y-45800D02*
X87820Y-46460D01*
X100050Y-45800D02*
X88480Y-45800D01*
X101150Y-46900D02*
X100050Y-45800D01*
X82080Y-51730D02*
X82080Y-49620D01*
X86250Y-48030D02*
X87820Y-46460D01*
X83670Y-48030D02*
X86250Y-48030D01*
X82080Y-49620D02*
X83670Y-48030D01*
X89280Y-46460D02*
X96835Y-46460D01*
X96835Y-46460D02*
X98900Y-48525D01*
X83080Y-51730D02*
X83080Y-49850D01*
X86900Y-48840D02*
X89280Y-46460D01*
X84090Y-48840D02*
X86900Y-48840D01*
X83080Y-49850D02*
X84090Y-48840D01*
X102150Y-51730D02*
X102150Y-49275D01*
X102150Y-49275D02*
X102900Y-48525D01*
X102150Y-28069D02*
X102150Y-29700D01*
X102150Y-29700D02*
X101910Y-29940D01*
X83080Y-28069D02*
X83080Y-27570D01*
X83080Y-27570D02*
X83335Y-27315D01*
X83335Y-27315D02*
X92805Y-27315D01*
X92805Y-27315D02*
X96340Y-30850D01*
X96340Y-30850D02*
X101000Y-30850D01*
X101000Y-30850D02*
X101910Y-29940D01*
X85580Y-29030D02*
X85580Y-30630D01*
X85580Y-30630D02*
X86660Y-31710D01*
X86660Y-31710D02*
X102165Y-31710D01*
X102165Y-31710D02*
X103142Y-30732D01*
X103142Y-30732D02*
X103142Y-28069D01*
X84072Y-28069D02*
X84619Y-28069D01*
X84619Y-28069D02*
X85580Y-29030D01*
X100520Y-29980D02*
X96955Y-29980D01*
X96955Y-29980D02*
X93750Y-26775D01*
X93750Y-26775D02*
X82625Y-26775D01*
X82625Y-26775D02*
X82080Y-27320D01*
X82080Y-27320D02*
X82080Y-28069D01*
X101150Y-28069D02*
X101150Y-29350D01*
X101150Y-29350D02*
X100520Y-29980D01*
X71175Y-37100D02*
X74260Y-37100D01*
X77548Y-40388D02*
X81002Y-40388D01*
X74260Y-37100D02*
X77548Y-40388D01*
X71175Y-38100D02*
X73320Y-38100D01*
X76608Y-41388D02*
X81002Y-41388D01*
X73320Y-38100D02*
X76608Y-41388D01*
X71175Y-39100D02*
X72380Y-39100D01*
X75668Y-42388D02*
X81002Y-42388D01*
X72380Y-39100D02*
X75668Y-42388D01*
X71175Y-40100D02*
X71175Y-40155D01*
X74408Y-43388D02*
X81002Y-43388D01*
X71175Y-40155D02*
X74408Y-43388D01*
X103150Y-51730D02*
X103150Y-51275D01*
X103500Y-50925D02*
X106325Y-50925D01*
X103150Y-51275D02*
X103500Y-50925D01*
X80080Y-51730D02*
X80080Y-53655D01*
X108725Y-50900D02*
X109475Y-50900D01*
X107900Y-51725D02*
X108725Y-50900D01*
X107900Y-53100D02*
X107900Y-51725D01*
X106525Y-54475D02*
X107900Y-53100D01*
X80900Y-54475D02*
X106525Y-54475D01*
X80080Y-53655D02*
X80900Y-54475D01*
X104450Y-42850D02*
X106225Y-42850D01*
X107100Y-39260D02*
X105705Y-37865D01*
X107100Y-41975D02*
X107100Y-39260D01*
X106225Y-42850D02*
X107100Y-41975D01*
X105400Y-41750D02*
X104550Y-41750D01*
X104660Y-36865D02*
X105705Y-36865D01*
X103900Y-37625D02*
X104660Y-36865D01*
X103900Y-41100D02*
X103900Y-37625D01*
X104550Y-41750D02*
X103900Y-41100D01*
X84002Y-43388D02*
X101616Y-43388D01*
X101616Y-43388D02*
X103145Y-41860D01*
X103145Y-41860D02*
X103145Y-35105D01*
X103145Y-35105D02*
X102740Y-34700D01*
X102740Y-34700D02*
X100910Y-34700D01*
X100910Y-34700D02*
X100520Y-35090D01*
X100520Y-35090D02*
X100520Y-35980D01*
X82404Y-33200D02*
X82404Y-42789D01*
X82404Y-42789D02*
X84002Y-44388D01*
X84002Y-36388D02*
X96601Y-36388D01*
X96601Y-36388D02*
X97770Y-35220D01*
X84002Y-37388D02*
X88608Y-37388D01*
X88608Y-37388D02*
X91810Y-40590D01*
X84002Y-38388D02*
X86068Y-38388D01*
X86068Y-38388D02*
X86410Y-38730D01*
X86410Y-38730D02*
X86410Y-40440D01*
X84002Y-39388D02*
X84928Y-39388D01*
X84928Y-39388D02*
X85448Y-39908D01*
X85448Y-39908D02*
X85448Y-40898D01*
X85448Y-40898D02*
X85800Y-41250D01*
X85800Y-41250D02*
X87030Y-41250D01*
X87030Y-41250D02*
X87820Y-40460D01*
X84002Y-40388D02*
X84586Y-40388D01*
X84586Y-40388D02*
X84920Y-40722D01*
X84920Y-40722D02*
X84920Y-41316D01*
X84920Y-41316D02*
X85404Y-41800D01*
X85404Y-41800D02*
X87940Y-41800D01*
X87940Y-41800D02*
X89280Y-40460D01*
X84002Y-41388D02*
X84134Y-41388D01*
X84134Y-41388D02*
X85338Y-42592D01*
X85338Y-42592D02*
X95258Y-42592D01*
X95258Y-42592D02*
X101910Y-35940D01*
X84002Y-42388D02*
X83388Y-42388D01*
X83388Y-42388D02*
X83250Y-42250D01*
X83250Y-42250D02*
X83250Y-35525D01*
X83250Y-35525D02*
X83745Y-35030D01*
X83745Y-35030D02*
X85580Y-35030D01*
X107244Y-28290D02*
X107244Y-29326D01*
X107244Y-29326D02*
X105705Y-30865D01*
X106325Y-49925D02*
X105525Y-49925D01*
X105525Y-49925D02*
X104450Y-48850D01*
X109475Y-51900D02*
X110925Y-51900D01*
X111400Y-51425D02*
X111400Y-41750D01*
X110925Y-51900D02*
X111400Y-51425D01*
X71175Y-33100D02*
X77714Y-33100D01*
X77714Y-33100D02*
X81002Y-36388D01*
X71175Y-34100D02*
X77240Y-34100D01*
X80528Y-37388D02*
X81002Y-37388D01*
X77240Y-34100D02*
X80528Y-37388D01*
X71175Y-35100D02*
X76120Y-35100D01*
X79408Y-38388D02*
X81002Y-38388D01*
X76120Y-35100D02*
X79408Y-38388D01*
X71175Y-36100D02*
X75360Y-36100D01*
X78648Y-39388D02*
X81002Y-39388D01*
X75360Y-36100D02*
X78648Y-39388D01*
X107244Y-27290D02*
X110065Y-27290D01*
X110450Y-48925D02*
X109475Y-49900D01*
X110450Y-27675D02*
X110450Y-48925D01*
X110065Y-27290D02*
X110450Y-27675D01*
X106325Y-51925D02*
X106500Y-51925D01*
X106500Y-51925D02*
X108525Y-49900D01*
X108525Y-49900D02*
X109475Y-49900D01*
X82404Y-32200D02*
X84325Y-32200D01*
X105910Y-27290D02*
X107244Y-27290D01*
X104800Y-28400D02*
X105910Y-27290D01*
X104800Y-30400D02*
X104800Y-28400D01*
X102100Y-33100D02*
X104800Y-30400D01*
X97200Y-33100D02*
X102100Y-33100D01*
X94850Y-35450D02*
X97200Y-33100D01*
X87575Y-35450D02*
X94850Y-35450D01*
X84325Y-32200D02*
X87575Y-35450D01*
X75250Y-31125D02*
X81329Y-31125D01*
X81329Y-31125D02*
X82404Y-32200D01*
X71175Y-31100D02*
X75223Y-31098D01*
X75223Y-31098D02*
X75250Y-31125D01*
X70175Y-31100D02*
X71175Y-31100D01*
G54D10*
G36*
X112230Y-53913D02*
X111988Y-53671D01*
X111607Y-53512D01*
X111194Y-53512D01*
X110813Y-53670D01*
X110521Y-53961D01*
X110362Y-54342D01*
X110362Y-54755D01*
X110520Y-55136D01*
X110713Y-55330D01*
X67186Y-55330D01*
X67378Y-55138D01*
X67537Y-54757D01*
X67537Y-54344D01*
X67379Y-53963D01*
X67088Y-53671D01*
X66707Y-53512D01*
X66294Y-53512D01*
X65913Y-53670D01*
X65633Y-53948D01*
X65633Y-52001D01*
X66873Y-53240D01*
X66873Y-53240D01*
X66986Y-53316D01*
X67119Y-53342D01*
X67119Y-53342D01*
X67119Y-53342D01*
X68386Y-53342D01*
X68550Y-53506D01*
X68772Y-53598D01*
X69012Y-53598D01*
X69234Y-53507D01*
X69393Y-53349D01*
X69550Y-53506D01*
X69772Y-53598D01*
X70012Y-53598D01*
X70234Y-53507D01*
X70355Y-53386D01*
X71089Y-53386D01*
X71104Y-53422D01*
X71252Y-53569D01*
X71445Y-53649D01*
X71653Y-53650D01*
X71847Y-53570D01*
X71994Y-53422D01*
X72074Y-53229D01*
X72075Y-53021D01*
X71995Y-52828D01*
X71847Y-52680D01*
X71654Y-52600D01*
X71446Y-52599D01*
X71439Y-52602D01*
X70355Y-52602D01*
X70247Y-52494D01*
X70355Y-52386D01*
X72108Y-52386D01*
X72154Y-52497D01*
X72302Y-52644D01*
X72495Y-52724D01*
X72703Y-52725D01*
X72897Y-52645D01*
X73044Y-52497D01*
X73124Y-52304D01*
X73125Y-52096D01*
X73045Y-51903D01*
X72897Y-51755D01*
X72704Y-51675D01*
X72607Y-51675D01*
X72544Y-51632D01*
X72394Y-51602D01*
X70355Y-51602D01*
X70247Y-51494D01*
X70355Y-51386D01*
X73029Y-51386D01*
X73054Y-51447D01*
X73133Y-51525D01*
X73133Y-52799D01*
X73105Y-52827D01*
X73025Y-53020D01*
X73024Y-53228D01*
X73104Y-53422D01*
X73252Y-53569D01*
X73445Y-53649D01*
X73653Y-53650D01*
X73847Y-53570D01*
X73994Y-53422D01*
X74074Y-53229D01*
X74075Y-53021D01*
X73995Y-52828D01*
X73916Y-52749D01*
X73916Y-51475D01*
X73944Y-51447D01*
X74024Y-51254D01*
X74025Y-51046D01*
X73945Y-50853D01*
X73797Y-50705D01*
X73604Y-50625D01*
X73506Y-50625D01*
X73394Y-50602D01*
X72939Y-50602D01*
X73044Y-50497D01*
X73124Y-50304D01*
X73125Y-50096D01*
X73045Y-49903D01*
X72897Y-49755D01*
X72704Y-49675D01*
X72496Y-49674D01*
X72415Y-49708D01*
X72075Y-49708D01*
X72022Y-49655D01*
X71829Y-49575D01*
X71621Y-49574D01*
X71553Y-49602D01*
X70355Y-49602D01*
X70247Y-49494D01*
X70355Y-49386D01*
X72168Y-49386D01*
X72277Y-49494D01*
X72470Y-49574D01*
X72678Y-49575D01*
X72872Y-49495D01*
X72875Y-49491D01*
X73099Y-49491D01*
X73202Y-49594D01*
X73395Y-49674D01*
X73603Y-49675D01*
X73797Y-49595D01*
X73944Y-49447D01*
X74024Y-49254D01*
X74025Y-49046D01*
X73945Y-48853D01*
X73797Y-48705D01*
X73604Y-48625D01*
X73396Y-48624D01*
X73203Y-48704D01*
X73199Y-48708D01*
X72975Y-48708D01*
X72872Y-48605D01*
X72679Y-48525D01*
X72471Y-48524D01*
X72282Y-48602D01*
X71883Y-48602D01*
X72022Y-48545D01*
X72169Y-48397D01*
X72249Y-48204D01*
X72250Y-47996D01*
X72170Y-47803D01*
X72022Y-47655D01*
X71829Y-47575D01*
X71621Y-47574D01*
X71525Y-47614D01*
X71182Y-47614D01*
X71122Y-47555D01*
X70929Y-47475D01*
X70721Y-47474D01*
X70528Y-47554D01*
X70479Y-47602D01*
X70355Y-47602D01*
X70247Y-47494D01*
X70355Y-47386D01*
X72168Y-47386D01*
X72277Y-47494D01*
X72470Y-47574D01*
X72678Y-47575D01*
X72872Y-47495D01*
X73019Y-47347D01*
X73099Y-47154D01*
X73099Y-47099D01*
X73107Y-47091D01*
X82722Y-47091D01*
X82590Y-47118D01*
X82463Y-47203D01*
X80803Y-48863D01*
X80718Y-48990D01*
X80688Y-49140D01*
X80688Y-51185D01*
X80621Y-51118D01*
X80529Y-51080D01*
X80430Y-51080D01*
X79630Y-51080D01*
X79538Y-51118D01*
X79468Y-51188D01*
X79430Y-51280D01*
X79429Y-51380D01*
X79429Y-52180D01*
X79467Y-52272D01*
X79538Y-52342D01*
X79630Y-52380D01*
X79688Y-52380D01*
X79688Y-53655D01*
X79718Y-53804D01*
X79803Y-53931D01*
X80623Y-54751D01*
X80750Y-54836D01*
X80900Y-54866D01*
X106525Y-54866D01*
X106674Y-54836D01*
X106801Y-54751D01*
X108176Y-53376D01*
X108176Y-53376D01*
X108233Y-53292D01*
X108261Y-53249D01*
X108261Y-53249D01*
X108291Y-53100D01*
X108291Y-53100D01*
X108291Y-51887D01*
X108887Y-51291D01*
X109018Y-51291D01*
X109126Y-51400D01*
X108966Y-51559D01*
X108875Y-51780D01*
X108874Y-52018D01*
X108966Y-52239D01*
X109134Y-52408D01*
X109355Y-52499D01*
X109593Y-52500D01*
X109814Y-52408D01*
X109931Y-52291D01*
X110925Y-52291D01*
X111074Y-52261D01*
X111201Y-52176D01*
X111676Y-51701D01*
X111676Y-51701D01*
X111761Y-51574D01*
X111791Y-51425D01*
X111791Y-51425D01*
X111791Y-42129D01*
X111861Y-42059D01*
X111945Y-41858D01*
X111945Y-41642D01*
X111862Y-41441D01*
X111709Y-41288D01*
X111508Y-41204D01*
X111292Y-41204D01*
X111091Y-41287D01*
X110938Y-41440D01*
X110854Y-41641D01*
X110854Y-41857D01*
X110937Y-42058D01*
X111008Y-42129D01*
X111008Y-51262D01*
X110762Y-51508D01*
X109931Y-51508D01*
X109823Y-51399D01*
X109983Y-51240D01*
X110074Y-51019D01*
X110075Y-50781D01*
X109983Y-50560D01*
X109909Y-50485D01*
X109966Y-50462D01*
X110036Y-50391D01*
X110074Y-50299D01*
X110075Y-50200D01*
X110075Y-49853D01*
X110726Y-49201D01*
X110726Y-49201D01*
X110783Y-49117D01*
X110811Y-49074D01*
X110811Y-49074D01*
X110841Y-48925D01*
X110841Y-48925D01*
X110841Y-27675D01*
X110811Y-27525D01*
X110726Y-27398D01*
X110726Y-27398D01*
X110341Y-27013D01*
X110214Y-26928D01*
X110065Y-26898D01*
X108954Y-26898D01*
X108954Y-25406D01*
X108943Y-25188D01*
X108881Y-25037D01*
X108785Y-25009D01*
X108715Y-25080D01*
X108715Y-24939D01*
X108687Y-24843D01*
X108481Y-24770D01*
X108263Y-24781D01*
X108112Y-24843D01*
X108084Y-24939D01*
X108400Y-25254D01*
X108715Y-24939D01*
X108715Y-25080D01*
X108470Y-25325D01*
X108785Y-25640D01*
X108881Y-25612D01*
X108954Y-25406D01*
X108954Y-26898D01*
X108715Y-26898D01*
X108715Y-25710D01*
X108400Y-25395D01*
X108329Y-25466D01*
X108329Y-25325D01*
X108014Y-25009D01*
X107918Y-25037D01*
X107845Y-25243D01*
X107856Y-25461D01*
X107918Y-25612D01*
X108014Y-25640D01*
X108329Y-25325D01*
X108329Y-25466D01*
X108084Y-25710D01*
X108112Y-25806D01*
X108318Y-25879D01*
X108536Y-25868D01*
X108687Y-25806D01*
X108715Y-25710D01*
X108715Y-26898D01*
X107706Y-26898D01*
X107586Y-26777D01*
X107364Y-26685D01*
X107124Y-26685D01*
X106902Y-26777D01*
X106781Y-26898D01*
X105910Y-26898D01*
X105760Y-26928D01*
X105633Y-27013D01*
X104523Y-28123D01*
X104438Y-28250D01*
X104408Y-28400D01*
X104408Y-30237D01*
X101937Y-32708D01*
X97200Y-32708D01*
X97050Y-32738D01*
X96973Y-32788D01*
X96923Y-32823D01*
X94687Y-35058D01*
X92104Y-35058D01*
X92118Y-35052D01*
X92271Y-34899D01*
X92355Y-34698D01*
X92355Y-34482D01*
X92272Y-34281D01*
X92119Y-34128D01*
X91918Y-34044D01*
X91702Y-34044D01*
X91501Y-34127D01*
X91430Y-34198D01*
X88502Y-34198D01*
X83676Y-29373D01*
X83549Y-29288D01*
X83400Y-29258D01*
X80712Y-29258D01*
X80471Y-29017D01*
X80471Y-28596D01*
X80580Y-28488D01*
X80711Y-28620D01*
X80950Y-28719D01*
X81208Y-28719D01*
X81447Y-28620D01*
X81580Y-28488D01*
X81711Y-28620D01*
X81950Y-28719D01*
X82208Y-28719D01*
X82447Y-28620D01*
X82580Y-28488D01*
X82711Y-28620D01*
X82950Y-28719D01*
X83208Y-28719D01*
X83447Y-28620D01*
X83576Y-28492D01*
X83703Y-28620D01*
X83942Y-28719D01*
X84200Y-28719D01*
X84439Y-28620D01*
X84528Y-28532D01*
X85034Y-29038D01*
X85034Y-29137D01*
X85117Y-29338D01*
X85188Y-29409D01*
X85188Y-30630D01*
X85218Y-30779D01*
X85303Y-30906D01*
X86383Y-31986D01*
X86383Y-31986D01*
X86510Y-32071D01*
X86660Y-32101D01*
X102165Y-32101D01*
X102314Y-32071D01*
X102441Y-31986D01*
X103419Y-31009D01*
X103419Y-31009D01*
X103504Y-30882D01*
X103533Y-30732D01*
X103533Y-30732D01*
X103533Y-28596D01*
X103692Y-28437D01*
X103792Y-28199D01*
X103792Y-27940D01*
X103693Y-27701D01*
X103510Y-27518D01*
X103271Y-27419D01*
X103013Y-27419D01*
X102774Y-27517D01*
X102645Y-27646D01*
X102518Y-27518D01*
X102279Y-27419D01*
X102021Y-27419D01*
X101782Y-27517D01*
X101649Y-27650D01*
X101518Y-27518D01*
X101279Y-27419D01*
X101021Y-27419D01*
X100782Y-27517D01*
X100649Y-27650D01*
X100518Y-27518D01*
X100279Y-27419D01*
X100021Y-27419D01*
X99782Y-27517D01*
X99649Y-27650D01*
X99541Y-27541D01*
X99541Y-26530D01*
X99511Y-26380D01*
X99426Y-26253D01*
X98711Y-25538D01*
X98584Y-25453D01*
X98435Y-25423D01*
X80745Y-25423D01*
X80595Y-25453D01*
X80468Y-25538D01*
X79803Y-26203D01*
X79718Y-26330D01*
X79688Y-26480D01*
X79688Y-27541D01*
X79529Y-27700D01*
X79430Y-27939D01*
X79429Y-28198D01*
X79528Y-28437D01*
X79688Y-28596D01*
X79688Y-29180D01*
X79718Y-29329D01*
X79803Y-29456D01*
X80273Y-29926D01*
X80400Y-30011D01*
X80550Y-30041D01*
X83237Y-30041D01*
X88063Y-34866D01*
X88190Y-34951D01*
X88340Y-34981D01*
X91430Y-34981D01*
X91500Y-35051D01*
X91515Y-35058D01*
X87737Y-35058D01*
X84601Y-31923D01*
X84474Y-31838D01*
X84325Y-31808D01*
X82866Y-31808D01*
X82746Y-31687D01*
X82524Y-31595D01*
X82353Y-31595D01*
X81605Y-30848D01*
X81478Y-30763D01*
X81329Y-30733D01*
X75800Y-30733D01*
X75800Y-30205D01*
X75789Y-29988D01*
X75727Y-29839D01*
X75632Y-29813D01*
X75561Y-29883D01*
X75561Y-29742D01*
X75535Y-29647D01*
X75330Y-29574D01*
X75113Y-29585D01*
X74964Y-29647D01*
X74938Y-29742D01*
X75250Y-30054D01*
X75561Y-29742D01*
X75561Y-29883D01*
X75320Y-30125D01*
X75632Y-30436D01*
X75727Y-30410D01*
X75800Y-30205D01*
X75800Y-30733D01*
X75629Y-30733D01*
X75559Y-30663D01*
X75474Y-30627D01*
X75535Y-30602D01*
X75561Y-30507D01*
X75250Y-30195D01*
X75179Y-30266D01*
X75179Y-30125D01*
X74867Y-29813D01*
X74772Y-29839D01*
X74699Y-30044D01*
X74710Y-30261D01*
X74772Y-30410D01*
X74867Y-30436D01*
X75179Y-30125D01*
X75179Y-30266D01*
X74938Y-30507D01*
X74964Y-30602D01*
X75030Y-30625D01*
X74941Y-30662D01*
X74895Y-30708D01*
X72100Y-30708D01*
X72100Y-27337D01*
X71898Y-26850D01*
X71526Y-26477D01*
X71039Y-26275D01*
X70512Y-26274D01*
X70025Y-26476D01*
X69652Y-26848D01*
X69450Y-27335D01*
X69449Y-27862D01*
X69651Y-28349D01*
X70023Y-28722D01*
X70510Y-28924D01*
X71037Y-28925D01*
X71524Y-28723D01*
X71897Y-28351D01*
X72099Y-27864D01*
X72100Y-27337D01*
X72100Y-30708D01*
X71637Y-30708D01*
X71517Y-30587D01*
X71295Y-30495D01*
X71055Y-30495D01*
X70833Y-30587D01*
X70712Y-30708D01*
X70637Y-30708D01*
X70517Y-30587D01*
X70295Y-30495D01*
X70055Y-30495D01*
X69833Y-30587D01*
X69662Y-30757D01*
X69570Y-30979D01*
X69570Y-31219D01*
X69662Y-31441D01*
X69832Y-31612D01*
X69840Y-31615D01*
X69820Y-31674D01*
X70175Y-32029D01*
X70529Y-31674D01*
X70509Y-31615D01*
X70516Y-31612D01*
X70637Y-31491D01*
X70712Y-31491D01*
X70832Y-31612D01*
X70840Y-31615D01*
X70820Y-31674D01*
X71175Y-32029D01*
X71529Y-31674D01*
X71509Y-31615D01*
X71516Y-31612D01*
X71637Y-31491D01*
X74845Y-31491D01*
X74940Y-31586D01*
X75141Y-31670D01*
X75357Y-31670D01*
X75558Y-31587D01*
X75629Y-31516D01*
X81166Y-31516D01*
X81799Y-32149D01*
X81799Y-32319D01*
X81891Y-32541D01*
X81961Y-32611D01*
X81908Y-32633D01*
X81837Y-32703D01*
X81799Y-32795D01*
X81799Y-32895D01*
X81799Y-33603D01*
X81837Y-33695D01*
X81907Y-33766D01*
X81999Y-33804D01*
X82012Y-33804D01*
X82012Y-42789D01*
X82042Y-42939D01*
X82127Y-43066D01*
X83437Y-44377D01*
X83437Y-44500D01*
X83523Y-44707D01*
X83681Y-44866D01*
X83889Y-44953D01*
X84114Y-44953D01*
X84321Y-44867D01*
X84481Y-44708D01*
X84567Y-44501D01*
X84567Y-44276D01*
X84481Y-44068D01*
X84322Y-43909D01*
X84271Y-43888D01*
X84321Y-43867D01*
X84409Y-43779D01*
X101616Y-43779D01*
X101766Y-43750D01*
X101893Y-43665D01*
X103421Y-42136D01*
X103421Y-42136D01*
X103506Y-42009D01*
X103536Y-41860D01*
X103536Y-41860D01*
X103536Y-41243D01*
X103538Y-41249D01*
X103623Y-41376D01*
X104273Y-42026D01*
X104273Y-42026D01*
X104400Y-42111D01*
X104550Y-42141D01*
X105020Y-42141D01*
X105090Y-42211D01*
X105291Y-42295D01*
X105507Y-42295D01*
X105708Y-42212D01*
X105861Y-42059D01*
X105945Y-41858D01*
X105945Y-41642D01*
X105862Y-41441D01*
X105709Y-41288D01*
X105508Y-41204D01*
X105292Y-41204D01*
X105091Y-41287D01*
X105020Y-41358D01*
X104712Y-41358D01*
X104291Y-40937D01*
X104291Y-37787D01*
X104822Y-37256D01*
X105354Y-37256D01*
X105407Y-37309D01*
X105540Y-37365D01*
X105408Y-37419D01*
X105260Y-37567D01*
X105180Y-37760D01*
X105179Y-37968D01*
X105259Y-38162D01*
X105407Y-38309D01*
X105600Y-38389D01*
X105675Y-38389D01*
X106708Y-39422D01*
X106708Y-41812D01*
X106062Y-42458D01*
X104829Y-42458D01*
X104759Y-42388D01*
X104558Y-42304D01*
X104342Y-42304D01*
X104141Y-42387D01*
X103988Y-42540D01*
X103904Y-42741D01*
X103904Y-42957D01*
X103987Y-43158D01*
X104140Y-43311D01*
X104341Y-43395D01*
X104557Y-43395D01*
X104758Y-43312D01*
X104829Y-43241D01*
X106225Y-43241D01*
X106374Y-43211D01*
X106501Y-43126D01*
X107376Y-42251D01*
X107376Y-42251D01*
X107461Y-42124D01*
X107491Y-41975D01*
X107491Y-41975D01*
X107491Y-39260D01*
X107491Y-39259D01*
X107461Y-39110D01*
X107461Y-39110D01*
X107433Y-39067D01*
X107376Y-38983D01*
X107376Y-38983D01*
X106230Y-37836D01*
X106230Y-37761D01*
X106150Y-37568D01*
X106002Y-37420D01*
X105869Y-37364D01*
X106002Y-37310D01*
X106149Y-37162D01*
X106229Y-36969D01*
X106230Y-36761D01*
X106150Y-36568D01*
X106002Y-36420D01*
X105869Y-36364D01*
X106002Y-36310D01*
X106149Y-36162D01*
X106229Y-35969D01*
X106230Y-35761D01*
X106150Y-35568D01*
X106002Y-35420D01*
X105869Y-35364D01*
X106002Y-35310D01*
X106149Y-35162D01*
X106229Y-34969D01*
X106230Y-34761D01*
X106150Y-34568D01*
X106002Y-34420D01*
X105869Y-34364D01*
X106002Y-34310D01*
X106149Y-34162D01*
X106229Y-33969D01*
X106230Y-33761D01*
X106150Y-33568D01*
X106002Y-33420D01*
X105869Y-33364D01*
X106002Y-33310D01*
X106149Y-33162D01*
X106229Y-32969D01*
X106230Y-32761D01*
X106150Y-32568D01*
X106002Y-32420D01*
X105869Y-32364D01*
X106002Y-32310D01*
X106149Y-32162D01*
X106229Y-31969D01*
X106230Y-31761D01*
X106150Y-31568D01*
X106002Y-31420D01*
X105869Y-31364D01*
X106002Y-31310D01*
X106149Y-31162D01*
X106229Y-30969D01*
X106229Y-30894D01*
X107520Y-29602D01*
X107520Y-29602D01*
X107605Y-29475D01*
X107635Y-29326D01*
X107635Y-29326D01*
X107635Y-28894D01*
X107647Y-28894D01*
X107739Y-28856D01*
X107810Y-28786D01*
X107848Y-28694D01*
X107848Y-28594D01*
X107848Y-27886D01*
X107810Y-27794D01*
X107740Y-27723D01*
X107686Y-27701D01*
X107706Y-27681D01*
X109902Y-27681D01*
X110058Y-27837D01*
X110058Y-37004D01*
X109641Y-36588D01*
X109514Y-36503D01*
X109365Y-36473D01*
X109234Y-36473D01*
X109234Y-30940D01*
X109223Y-30732D01*
X109165Y-30592D01*
X109072Y-30567D01*
X109002Y-30638D01*
X109002Y-30497D01*
X108977Y-30404D01*
X108954Y-30396D01*
X108954Y-29406D01*
X108943Y-29188D01*
X108881Y-29037D01*
X108785Y-29009D01*
X108715Y-29080D01*
X108715Y-28939D01*
X108687Y-28843D01*
X108481Y-28770D01*
X108263Y-28781D01*
X108112Y-28843D01*
X108084Y-28939D01*
X108400Y-29254D01*
X108715Y-28939D01*
X108715Y-29080D01*
X108470Y-29325D01*
X108785Y-29640D01*
X108881Y-29612D01*
X108954Y-29406D01*
X108954Y-30396D01*
X108780Y-30335D01*
X108715Y-30338D01*
X108715Y-29710D01*
X108400Y-29395D01*
X108329Y-29466D01*
X108329Y-29325D01*
X108014Y-29009D01*
X107918Y-29037D01*
X107845Y-29243D01*
X107856Y-29461D01*
X107918Y-29612D01*
X108014Y-29640D01*
X108329Y-29325D01*
X108329Y-29466D01*
X108084Y-29710D01*
X108112Y-29806D01*
X108318Y-29879D01*
X108536Y-29868D01*
X108687Y-29806D01*
X108715Y-29710D01*
X108715Y-30338D01*
X108572Y-30346D01*
X108432Y-30404D01*
X108407Y-30497D01*
X108705Y-30794D01*
X109002Y-30497D01*
X109002Y-30638D01*
X108775Y-30865D01*
X109072Y-31162D01*
X109165Y-31137D01*
X109234Y-30940D01*
X109234Y-36473D01*
X109055Y-36473D01*
X109002Y-36420D01*
X108869Y-36364D01*
X109002Y-36310D01*
X109149Y-36162D01*
X109229Y-35969D01*
X109230Y-35761D01*
X109150Y-35568D01*
X109002Y-35420D01*
X108869Y-35364D01*
X109002Y-35310D01*
X109149Y-35162D01*
X109229Y-34969D01*
X109230Y-34761D01*
X109150Y-34568D01*
X109002Y-34420D01*
X108869Y-34364D01*
X109002Y-34310D01*
X109149Y-34162D01*
X109229Y-33969D01*
X109230Y-33761D01*
X109150Y-33568D01*
X109002Y-33420D01*
X108869Y-33364D01*
X109002Y-33310D01*
X109149Y-33162D01*
X109229Y-32969D01*
X109230Y-32761D01*
X109150Y-32568D01*
X109002Y-32420D01*
X108869Y-32364D01*
X109002Y-32310D01*
X109149Y-32162D01*
X109229Y-31969D01*
X109230Y-31761D01*
X109150Y-31568D01*
X109002Y-31420D01*
X108876Y-31367D01*
X108977Y-31325D01*
X109002Y-31232D01*
X108705Y-30935D01*
X108634Y-31006D01*
X108634Y-30865D01*
X108337Y-30567D01*
X108244Y-30592D01*
X108175Y-30789D01*
X108186Y-30997D01*
X108244Y-31137D01*
X108337Y-31162D01*
X108634Y-30865D01*
X108634Y-31006D01*
X108407Y-31232D01*
X108432Y-31325D01*
X108542Y-31364D01*
X108408Y-31419D01*
X108260Y-31567D01*
X108180Y-31760D01*
X108179Y-31968D01*
X108259Y-32162D01*
X108407Y-32309D01*
X108540Y-32365D01*
X108408Y-32419D01*
X108260Y-32567D01*
X108180Y-32760D01*
X108179Y-32968D01*
X108259Y-33162D01*
X108407Y-33309D01*
X108540Y-33365D01*
X108408Y-33419D01*
X108260Y-33567D01*
X108180Y-33760D01*
X108179Y-33968D01*
X108259Y-34162D01*
X108407Y-34309D01*
X108540Y-34365D01*
X108408Y-34419D01*
X108260Y-34567D01*
X108180Y-34760D01*
X108179Y-34968D01*
X108259Y-35162D01*
X108407Y-35309D01*
X108540Y-35365D01*
X108408Y-35419D01*
X108260Y-35567D01*
X108180Y-35760D01*
X108179Y-35968D01*
X108259Y-36162D01*
X108407Y-36309D01*
X108540Y-36365D01*
X108408Y-36419D01*
X108260Y-36567D01*
X108180Y-36760D01*
X108179Y-36968D01*
X108259Y-37162D01*
X108407Y-37309D01*
X108479Y-37339D01*
X108380Y-37339D01*
X108288Y-37377D01*
X108218Y-37448D01*
X108180Y-37540D01*
X108179Y-37639D01*
X108179Y-38189D01*
X108217Y-38281D01*
X108288Y-38351D01*
X108313Y-38362D01*
X108313Y-41612D01*
X106037Y-43888D01*
X85480Y-43888D01*
X85330Y-43918D01*
X85203Y-44003D01*
X83603Y-45602D01*
X81572Y-45602D01*
X81572Y-44473D01*
X81561Y-44249D01*
X81496Y-44091D01*
X81399Y-44062D01*
X81073Y-44388D01*
X81399Y-44714D01*
X81496Y-44685D01*
X81572Y-44473D01*
X81572Y-45602D01*
X81328Y-45602D01*
X81328Y-44784D01*
X81002Y-44458D01*
X80931Y-44529D01*
X80931Y-44388D01*
X80605Y-44062D01*
X80508Y-44091D01*
X80432Y-44302D01*
X80443Y-44527D01*
X80508Y-44685D01*
X80605Y-44714D01*
X80931Y-44388D01*
X80931Y-44529D01*
X80676Y-44784D01*
X80705Y-44881D01*
X80917Y-44957D01*
X81141Y-44947D01*
X81299Y-44881D01*
X81328Y-44784D01*
X81328Y-45602D01*
X72100Y-45602D01*
X72100Y-43337D01*
X71898Y-42850D01*
X71526Y-42477D01*
X71039Y-42275D01*
X70512Y-42274D01*
X70025Y-42476D01*
X69652Y-42848D01*
X69450Y-43335D01*
X69449Y-43862D01*
X69651Y-44349D01*
X70023Y-44722D01*
X70510Y-44924D01*
X71037Y-44925D01*
X71524Y-44723D01*
X71897Y-44351D01*
X72099Y-43864D01*
X72100Y-43337D01*
X72100Y-45602D01*
X71170Y-45602D01*
X71122Y-45555D01*
X70929Y-45475D01*
X70721Y-45474D01*
X70528Y-45554D01*
X70479Y-45602D01*
X70355Y-45602D01*
X70235Y-45482D01*
X70013Y-45390D01*
X69773Y-45390D01*
X69551Y-45481D01*
X69481Y-45551D01*
X69459Y-45498D01*
X69389Y-45428D01*
X69297Y-45390D01*
X69241Y-45390D01*
X69241Y-40871D01*
X69664Y-40448D01*
X69668Y-40448D01*
X69832Y-40612D01*
X70054Y-40704D01*
X70294Y-40704D01*
X70516Y-40612D01*
X70586Y-40542D01*
X70608Y-40595D01*
X70678Y-40666D01*
X70770Y-40704D01*
X70870Y-40704D01*
X71170Y-40704D01*
X74131Y-43665D01*
X74258Y-43750D01*
X74408Y-43779D01*
X80595Y-43779D01*
X80681Y-43866D01*
X80727Y-43885D01*
X80705Y-43894D01*
X80676Y-43991D01*
X81002Y-44317D01*
X81328Y-43991D01*
X81299Y-43894D01*
X81276Y-43886D01*
X81321Y-43867D01*
X81481Y-43708D01*
X81567Y-43501D01*
X81567Y-43276D01*
X81481Y-43068D01*
X81322Y-42909D01*
X81271Y-42888D01*
X81321Y-42867D01*
X81481Y-42708D01*
X81567Y-42501D01*
X81567Y-42276D01*
X81481Y-42068D01*
X81322Y-41909D01*
X81271Y-41888D01*
X81321Y-41867D01*
X81481Y-41708D01*
X81567Y-41501D01*
X81567Y-41276D01*
X81481Y-41068D01*
X81322Y-40909D01*
X81271Y-40888D01*
X81321Y-40867D01*
X81481Y-40708D01*
X81567Y-40501D01*
X81567Y-40276D01*
X81481Y-40068D01*
X81322Y-39909D01*
X81271Y-39888D01*
X81321Y-39867D01*
X81481Y-39708D01*
X81567Y-39501D01*
X81567Y-39276D01*
X81481Y-39068D01*
X81322Y-38909D01*
X81271Y-38888D01*
X81321Y-38867D01*
X81481Y-38708D01*
X81567Y-38501D01*
X81567Y-38276D01*
X81481Y-38068D01*
X81322Y-37909D01*
X81271Y-37888D01*
X81321Y-37867D01*
X81481Y-37708D01*
X81567Y-37501D01*
X81567Y-37276D01*
X81481Y-37068D01*
X81366Y-36953D01*
X81366Y-36953D01*
X81458Y-36915D01*
X81529Y-36844D01*
X81567Y-36753D01*
X81567Y-36653D01*
X81567Y-36023D01*
X81529Y-35931D01*
X81459Y-35861D01*
X81367Y-35823D01*
X81267Y-35823D01*
X80991Y-35823D01*
X77991Y-32823D01*
X77864Y-32738D01*
X77714Y-32708D01*
X71783Y-32708D01*
X71783Y-32194D01*
X71773Y-31954D01*
X71701Y-31779D01*
X71600Y-31745D01*
X71245Y-32100D01*
X71600Y-32454D01*
X71701Y-32420D01*
X71783Y-32194D01*
X71783Y-32708D01*
X71561Y-32708D01*
X71486Y-32634D01*
X71481Y-32631D01*
X71495Y-32626D01*
X71529Y-32525D01*
X71175Y-32170D01*
X71104Y-32241D01*
X71104Y-32100D01*
X70749Y-31745D01*
X70675Y-31770D01*
X70600Y-31745D01*
X70245Y-32100D01*
X70600Y-32454D01*
X70675Y-32429D01*
X70749Y-32454D01*
X71104Y-32100D01*
X71104Y-32241D01*
X70820Y-32525D01*
X70854Y-32626D01*
X70868Y-32631D01*
X70863Y-32633D01*
X70709Y-32788D01*
X70675Y-32869D01*
X70641Y-32788D01*
X70486Y-32634D01*
X70481Y-32631D01*
X70495Y-32626D01*
X70529Y-32525D01*
X70175Y-32170D01*
X70104Y-32241D01*
X70104Y-32100D01*
X69749Y-31745D01*
X69648Y-31779D01*
X69566Y-32005D01*
X69576Y-32245D01*
X69648Y-32420D01*
X69749Y-32454D01*
X70104Y-32100D01*
X70104Y-32241D01*
X69820Y-32525D01*
X69854Y-32626D01*
X69868Y-32631D01*
X69863Y-32633D01*
X69745Y-32751D01*
X66900Y-32751D01*
X66900Y-32751D01*
X66766Y-32778D01*
X66653Y-32853D01*
X66653Y-32853D01*
X65643Y-33863D01*
X65643Y-26098D01*
X65670Y-26161D01*
X65961Y-26453D01*
X66342Y-26612D01*
X66755Y-26612D01*
X67136Y-26454D01*
X67428Y-26163D01*
X67587Y-25782D01*
X67587Y-25369D01*
X67429Y-24988D01*
X67186Y-24744D01*
X110763Y-24744D01*
X110571Y-24936D01*
X110412Y-25317D01*
X110412Y-25730D01*
X110570Y-26111D01*
X110861Y-26403D01*
X111242Y-26562D01*
X111655Y-26562D01*
X112036Y-26404D01*
X112230Y-26211D01*
X112230Y-53913D01*
X112230Y-53913D01*
G37*
G54D27*
X112230Y-53913D02*
X111988Y-53671D01*
X111607Y-53512D01*
X111194Y-53512D01*
X110813Y-53670D01*
X110521Y-53961D01*
X110362Y-54342D01*
X110362Y-54755D01*
X110520Y-55136D01*
X110713Y-55330D01*
X67186Y-55330D01*
X67378Y-55138D01*
X67537Y-54757D01*
X67537Y-54344D01*
X67379Y-53963D01*
X67088Y-53671D01*
X66707Y-53512D01*
X66294Y-53512D01*
X65913Y-53670D01*
X65633Y-53948D01*
X65633Y-52001D01*
X66873Y-53240D01*
X66873Y-53240D01*
X66986Y-53316D01*
X67119Y-53342D01*
X67119Y-53342D01*
X67119Y-53342D01*
X68386Y-53342D01*
X68550Y-53506D01*
X68772Y-53598D01*
X69012Y-53598D01*
X69234Y-53507D01*
X69393Y-53349D01*
X69550Y-53506D01*
X69772Y-53598D01*
X70012Y-53598D01*
X70234Y-53507D01*
X70355Y-53386D01*
X71089Y-53386D01*
X71104Y-53422D01*
X71252Y-53569D01*
X71445Y-53649D01*
X71653Y-53650D01*
X71847Y-53570D01*
X71994Y-53422D01*
X72074Y-53229D01*
X72075Y-53021D01*
X71995Y-52828D01*
X71847Y-52680D01*
X71654Y-52600D01*
X71446Y-52599D01*
X71439Y-52602D01*
X70355Y-52602D01*
X70247Y-52494D01*
X70355Y-52386D01*
X72108Y-52386D01*
X72154Y-52497D01*
X72302Y-52644D01*
X72495Y-52724D01*
X72703Y-52725D01*
X72897Y-52645D01*
X73044Y-52497D01*
X73124Y-52304D01*
X73125Y-52096D01*
X73045Y-51903D01*
X72897Y-51755D01*
X72704Y-51675D01*
X72607Y-51675D01*
X72544Y-51632D01*
X72394Y-51602D01*
X70355Y-51602D01*
X70247Y-51494D01*
X70355Y-51386D01*
X73029Y-51386D01*
X73054Y-51447D01*
X73133Y-51525D01*
X73133Y-52799D01*
X73105Y-52827D01*
X73025Y-53020D01*
X73024Y-53228D01*
X73104Y-53422D01*
X73252Y-53569D01*
X73445Y-53649D01*
X73653Y-53650D01*
X73847Y-53570D01*
X73994Y-53422D01*
X74074Y-53229D01*
X74075Y-53021D01*
X73995Y-52828D01*
X73916Y-52749D01*
X73916Y-51475D01*
X73944Y-51447D01*
X74024Y-51254D01*
X74025Y-51046D01*
X73945Y-50853D01*
X73797Y-50705D01*
X73604Y-50625D01*
X73506Y-50625D01*
X73394Y-50602D01*
X72939Y-50602D01*
X73044Y-50497D01*
X73124Y-50304D01*
X73125Y-50096D01*
X73045Y-49903D01*
X72897Y-49755D01*
X72704Y-49675D01*
X72496Y-49674D01*
X72415Y-49708D01*
X72075Y-49708D01*
X72022Y-49655D01*
X71829Y-49575D01*
X71621Y-49574D01*
X71553Y-49602D01*
X70355Y-49602D01*
X70247Y-49494D01*
X70355Y-49386D01*
X72168Y-49386D01*
X72277Y-49494D01*
X72470Y-49574D01*
X72678Y-49575D01*
X72872Y-49495D01*
X72875Y-49491D01*
X73099Y-49491D01*
X73202Y-49594D01*
X73395Y-49674D01*
X73603Y-49675D01*
X73797Y-49595D01*
X73944Y-49447D01*
X74024Y-49254D01*
X74025Y-49046D01*
X73945Y-48853D01*
X73797Y-48705D01*
X73604Y-48625D01*
X73396Y-48624D01*
X73203Y-48704D01*
X73199Y-48708D01*
X72975Y-48708D01*
X72872Y-48605D01*
X72679Y-48525D01*
X72471Y-48524D01*
X72282Y-48602D01*
X71883Y-48602D01*
X72022Y-48545D01*
X72169Y-48397D01*
X72249Y-48204D01*
X72250Y-47996D01*
X72170Y-47803D01*
X72022Y-47655D01*
X71829Y-47575D01*
X71621Y-47574D01*
X71525Y-47614D01*
X71182Y-47614D01*
X71122Y-47555D01*
X70929Y-47475D01*
X70721Y-47474D01*
X70528Y-47554D01*
X70479Y-47602D01*
X70355Y-47602D01*
X70247Y-47494D01*
X70355Y-47386D01*
X72168Y-47386D01*
X72277Y-47494D01*
X72470Y-47574D01*
X72678Y-47575D01*
X72872Y-47495D01*
X73019Y-47347D01*
X73099Y-47154D01*
X73099Y-47099D01*
X73107Y-47091D01*
X82722Y-47091D01*
X82590Y-47118D01*
X82463Y-47203D01*
X80803Y-48863D01*
X80718Y-48990D01*
X80688Y-49140D01*
X80688Y-51185D01*
X80621Y-51118D01*
X80529Y-51080D01*
X80430Y-51080D01*
X79630Y-51080D01*
X79538Y-51118D01*
X79468Y-51188D01*
X79430Y-51280D01*
X79429Y-51380D01*
X79429Y-52180D01*
X79467Y-52272D01*
X79538Y-52342D01*
X79630Y-52380D01*
X79688Y-52380D01*
X79688Y-53655D01*
X79718Y-53804D01*
X79803Y-53931D01*
X80623Y-54751D01*
X80750Y-54836D01*
X80900Y-54866D01*
X106525Y-54866D01*
X106674Y-54836D01*
X106801Y-54751D01*
X108176Y-53376D01*
X108176Y-53376D01*
X108233Y-53292D01*
X108261Y-53249D01*
X108261Y-53249D01*
X108291Y-53100D01*
X108291Y-53100D01*
X108291Y-51887D01*
X108887Y-51291D01*
X109018Y-51291D01*
X109126Y-51400D01*
X108966Y-51559D01*
X108875Y-51780D01*
X108874Y-52018D01*
X108966Y-52239D01*
X109134Y-52408D01*
X109355Y-52499D01*
X109593Y-52500D01*
X109814Y-52408D01*
X109931Y-52291D01*
X110925Y-52291D01*
X111074Y-52261D01*
X111201Y-52176D01*
X111676Y-51701D01*
X111676Y-51701D01*
X111761Y-51574D01*
X111791Y-51425D01*
X111791Y-51425D01*
X111791Y-42129D01*
X111861Y-42059D01*
X111945Y-41858D01*
X111945Y-41642D01*
X111862Y-41441D01*
X111709Y-41288D01*
X111508Y-41204D01*
X111292Y-41204D01*
X111091Y-41287D01*
X110938Y-41440D01*
X110854Y-41641D01*
X110854Y-41857D01*
X110937Y-42058D01*
X111008Y-42129D01*
X111008Y-51262D01*
X110762Y-51508D01*
X109931Y-51508D01*
X109823Y-51399D01*
X109983Y-51240D01*
X110074Y-51019D01*
X110075Y-50781D01*
X109983Y-50560D01*
X109909Y-50485D01*
X109966Y-50462D01*
X110036Y-50391D01*
X110074Y-50299D01*
X110075Y-50200D01*
X110075Y-49853D01*
X110726Y-49201D01*
X110726Y-49201D01*
X110783Y-49117D01*
X110811Y-49074D01*
X110811Y-49074D01*
X110841Y-48925D01*
X110841Y-48925D01*
X110841Y-27675D01*
X110811Y-27525D01*
X110726Y-27398D01*
X110726Y-27398D01*
X110341Y-27013D01*
X110214Y-26928D01*
X110065Y-26898D01*
X108954Y-26898D01*
X108954Y-25406D01*
X108943Y-25188D01*
X108881Y-25037D01*
X108785Y-25009D01*
X108715Y-25080D01*
X108715Y-24939D01*
X108687Y-24843D01*
X108481Y-24770D01*
X108263Y-24781D01*
X108112Y-24843D01*
X108084Y-24939D01*
X108400Y-25254D01*
X108715Y-24939D01*
X108715Y-25080D01*
X108470Y-25325D01*
X108785Y-25640D01*
X108881Y-25612D01*
X108954Y-25406D01*
X108954Y-26898D01*
X108715Y-26898D01*
X108715Y-25710D01*
X108400Y-25395D01*
X108329Y-25466D01*
X108329Y-25325D01*
X108014Y-25009D01*
X107918Y-25037D01*
X107845Y-25243D01*
X107856Y-25461D01*
X107918Y-25612D01*
X108014Y-25640D01*
X108329Y-25325D01*
X108329Y-25466D01*
X108084Y-25710D01*
X108112Y-25806D01*
X108318Y-25879D01*
X108536Y-25868D01*
X108687Y-25806D01*
X108715Y-25710D01*
X108715Y-26898D01*
X107706Y-26898D01*
X107586Y-26777D01*
X107364Y-26685D01*
X107124Y-26685D01*
X106902Y-26777D01*
X106781Y-26898D01*
X105910Y-26898D01*
X105760Y-26928D01*
X105633Y-27013D01*
X104523Y-28123D01*
X104438Y-28250D01*
X104408Y-28400D01*
X104408Y-30237D01*
X101937Y-32708D01*
X97200Y-32708D01*
X97050Y-32738D01*
X96973Y-32788D01*
X96923Y-32823D01*
X94687Y-35058D01*
X92104Y-35058D01*
X92118Y-35052D01*
X92271Y-34899D01*
X92355Y-34698D01*
X92355Y-34482D01*
X92272Y-34281D01*
X92119Y-34128D01*
X91918Y-34044D01*
X91702Y-34044D01*
X91501Y-34127D01*
X91430Y-34198D01*
X88502Y-34198D01*
X83676Y-29373D01*
X83549Y-29288D01*
X83400Y-29258D01*
X80712Y-29258D01*
X80471Y-29017D01*
X80471Y-28596D01*
X80580Y-28488D01*
X80711Y-28620D01*
X80950Y-28719D01*
X81208Y-28719D01*
X81447Y-28620D01*
X81580Y-28488D01*
X81711Y-28620D01*
X81950Y-28719D01*
X82208Y-28719D01*
X82447Y-28620D01*
X82580Y-28488D01*
X82711Y-28620D01*
X82950Y-28719D01*
X83208Y-28719D01*
X83447Y-28620D01*
X83576Y-28492D01*
X83703Y-28620D01*
X83942Y-28719D01*
X84200Y-28719D01*
X84439Y-28620D01*
X84528Y-28532D01*
X85034Y-29038D01*
X85034Y-29137D01*
X85117Y-29338D01*
X85188Y-29409D01*
X85188Y-30630D01*
X85218Y-30779D01*
X85303Y-30906D01*
X86383Y-31986D01*
X86383Y-31986D01*
X86510Y-32071D01*
X86660Y-32101D01*
X102165Y-32101D01*
X102314Y-32071D01*
X102441Y-31986D01*
X103419Y-31009D01*
X103419Y-31009D01*
X103504Y-30882D01*
X103533Y-30732D01*
X103533Y-30732D01*
X103533Y-28596D01*
X103692Y-28437D01*
X103792Y-28199D01*
X103792Y-27940D01*
X103693Y-27701D01*
X103510Y-27518D01*
X103271Y-27419D01*
X103013Y-27419D01*
X102774Y-27517D01*
X102645Y-27646D01*
X102518Y-27518D01*
X102279Y-27419D01*
X102021Y-27419D01*
X101782Y-27517D01*
X101649Y-27650D01*
X101518Y-27518D01*
X101279Y-27419D01*
X101021Y-27419D01*
X100782Y-27517D01*
X100649Y-27650D01*
X100518Y-27518D01*
X100279Y-27419D01*
X100021Y-27419D01*
X99782Y-27517D01*
X99649Y-27650D01*
X99541Y-27541D01*
X99541Y-26530D01*
X99511Y-26380D01*
X99426Y-26253D01*
X98711Y-25538D01*
X98584Y-25453D01*
X98435Y-25423D01*
X80745Y-25423D01*
X80595Y-25453D01*
X80468Y-25538D01*
X79803Y-26203D01*
X79718Y-26330D01*
X79688Y-26480D01*
X79688Y-27541D01*
X79529Y-27700D01*
X79430Y-27939D01*
X79429Y-28198D01*
X79528Y-28437D01*
X79688Y-28596D01*
X79688Y-29180D01*
X79718Y-29329D01*
X79803Y-29456D01*
X80273Y-29926D01*
X80400Y-30011D01*
X80550Y-30041D01*
X83237Y-30041D01*
X88063Y-34866D01*
X88190Y-34951D01*
X88340Y-34981D01*
X91430Y-34981D01*
X91500Y-35051D01*
X91515Y-35058D01*
X87737Y-35058D01*
X84601Y-31923D01*
X84474Y-31838D01*
X84325Y-31808D01*
X82866Y-31808D01*
X82746Y-31687D01*
X82524Y-31595D01*
X82353Y-31595D01*
X81605Y-30848D01*
X81478Y-30763D01*
X81329Y-30733D01*
X75800Y-30733D01*
X75800Y-30205D01*
X75789Y-29988D01*
X75727Y-29839D01*
X75632Y-29813D01*
X75561Y-29883D01*
X75561Y-29742D01*
X75535Y-29647D01*
X75330Y-29574D01*
X75113Y-29585D01*
X74964Y-29647D01*
X74938Y-29742D01*
X75250Y-30054D01*
X75561Y-29742D01*
X75561Y-29883D01*
X75320Y-30125D01*
X75632Y-30436D01*
X75727Y-30410D01*
X75800Y-30205D01*
X75800Y-30733D01*
X75629Y-30733D01*
X75559Y-30663D01*
X75474Y-30627D01*
X75535Y-30602D01*
X75561Y-30507D01*
X75250Y-30195D01*
X75179Y-30266D01*
X75179Y-30125D01*
X74867Y-29813D01*
X74772Y-29839D01*
X74699Y-30044D01*
X74710Y-30261D01*
X74772Y-30410D01*
X74867Y-30436D01*
X75179Y-30125D01*
X75179Y-30266D01*
X74938Y-30507D01*
X74964Y-30602D01*
X75030Y-30625D01*
X74941Y-30662D01*
X74895Y-30708D01*
X72100Y-30708D01*
X72100Y-27337D01*
X71898Y-26850D01*
X71526Y-26477D01*
X71039Y-26275D01*
X70512Y-26274D01*
X70025Y-26476D01*
X69652Y-26848D01*
X69450Y-27335D01*
X69449Y-27862D01*
X69651Y-28349D01*
X70023Y-28722D01*
X70510Y-28924D01*
X71037Y-28925D01*
X71524Y-28723D01*
X71897Y-28351D01*
X72099Y-27864D01*
X72100Y-27337D01*
X72100Y-30708D01*
X71637Y-30708D01*
X71517Y-30587D01*
X71295Y-30495D01*
X71055Y-30495D01*
X70833Y-30587D01*
X70712Y-30708D01*
X70637Y-30708D01*
X70517Y-30587D01*
X70295Y-30495D01*
X70055Y-30495D01*
X69833Y-30587D01*
X69662Y-30757D01*
X69570Y-30979D01*
X69570Y-31219D01*
X69662Y-31441D01*
X69832Y-31612D01*
X69840Y-31615D01*
X69820Y-31674D01*
X70175Y-32029D01*
X70529Y-31674D01*
X70509Y-31615D01*
X70516Y-31612D01*
X70637Y-31491D01*
X70712Y-31491D01*
X70832Y-31612D01*
X70840Y-31615D01*
X70820Y-31674D01*
X71175Y-32029D01*
X71529Y-31674D01*
X71509Y-31615D01*
X71516Y-31612D01*
X71637Y-31491D01*
X74845Y-31491D01*
X74940Y-31586D01*
X75141Y-31670D01*
X75357Y-31670D01*
X75558Y-31587D01*
X75629Y-31516D01*
X81166Y-31516D01*
X81799Y-32149D01*
X81799Y-32319D01*
X81891Y-32541D01*
X81961Y-32611D01*
X81908Y-32633D01*
X81837Y-32703D01*
X81799Y-32795D01*
X81799Y-32895D01*
X81799Y-33603D01*
X81837Y-33695D01*
X81907Y-33766D01*
X81999Y-33804D01*
X82012Y-33804D01*
X82012Y-42789D01*
X82042Y-42939D01*
X82127Y-43066D01*
X83437Y-44377D01*
X83437Y-44500D01*
X83523Y-44707D01*
X83681Y-44866D01*
X83889Y-44953D01*
X84114Y-44953D01*
X84321Y-44867D01*
X84481Y-44708D01*
X84567Y-44501D01*
X84567Y-44276D01*
X84481Y-44068D01*
X84322Y-43909D01*
X84271Y-43888D01*
X84321Y-43867D01*
X84409Y-43779D01*
X101616Y-43779D01*
X101766Y-43750D01*
X101893Y-43665D01*
X103421Y-42136D01*
X103421Y-42136D01*
X103506Y-42009D01*
X103536Y-41860D01*
X103536Y-41860D01*
X103536Y-41243D01*
X103538Y-41249D01*
X103623Y-41376D01*
X104273Y-42026D01*
X104273Y-42026D01*
X104400Y-42111D01*
X104550Y-42141D01*
X105020Y-42141D01*
X105090Y-42211D01*
X105291Y-42295D01*
X105507Y-42295D01*
X105708Y-42212D01*
X105861Y-42059D01*
X105945Y-41858D01*
X105945Y-41642D01*
X105862Y-41441D01*
X105709Y-41288D01*
X105508Y-41204D01*
X105292Y-41204D01*
X105091Y-41287D01*
X105020Y-41358D01*
X104712Y-41358D01*
X104291Y-40937D01*
X104291Y-37787D01*
X104822Y-37256D01*
X105354Y-37256D01*
X105407Y-37309D01*
X105540Y-37365D01*
X105408Y-37419D01*
X105260Y-37567D01*
X105180Y-37760D01*
X105179Y-37968D01*
X105259Y-38162D01*
X105407Y-38309D01*
X105600Y-38389D01*
X105675Y-38389D01*
X106708Y-39422D01*
X106708Y-41812D01*
X106062Y-42458D01*
X104829Y-42458D01*
X104759Y-42388D01*
X104558Y-42304D01*
X104342Y-42304D01*
X104141Y-42387D01*
X103988Y-42540D01*
X103904Y-42741D01*
X103904Y-42957D01*
X103987Y-43158D01*
X104140Y-43311D01*
X104341Y-43395D01*
X104557Y-43395D01*
X104758Y-43312D01*
X104829Y-43241D01*
X106225Y-43241D01*
X106374Y-43211D01*
X106501Y-43126D01*
X107376Y-42251D01*
X107376Y-42251D01*
X107461Y-42124D01*
X107491Y-41975D01*
X107491Y-41975D01*
X107491Y-39260D01*
X107491Y-39259D01*
X107461Y-39110D01*
X107461Y-39110D01*
X107433Y-39067D01*
X107376Y-38983D01*
X107376Y-38983D01*
X106230Y-37836D01*
X106230Y-37761D01*
X106150Y-37568D01*
X106002Y-37420D01*
X105869Y-37364D01*
X106002Y-37310D01*
X106149Y-37162D01*
X106229Y-36969D01*
X106230Y-36761D01*
X106150Y-36568D01*
X106002Y-36420D01*
X105869Y-36364D01*
X106002Y-36310D01*
X106149Y-36162D01*
X106229Y-35969D01*
X106230Y-35761D01*
X106150Y-35568D01*
X106002Y-35420D01*
X105869Y-35364D01*
X106002Y-35310D01*
X106149Y-35162D01*
X106229Y-34969D01*
X106230Y-34761D01*
X106150Y-34568D01*
X106002Y-34420D01*
X105869Y-34364D01*
X106002Y-34310D01*
X106149Y-34162D01*
X106229Y-33969D01*
X106230Y-33761D01*
X106150Y-33568D01*
X106002Y-33420D01*
X105869Y-33364D01*
X106002Y-33310D01*
X106149Y-33162D01*
X106229Y-32969D01*
X106230Y-32761D01*
X106150Y-32568D01*
X106002Y-32420D01*
X105869Y-32364D01*
X106002Y-32310D01*
X106149Y-32162D01*
X106229Y-31969D01*
X106230Y-31761D01*
X106150Y-31568D01*
X106002Y-31420D01*
X105869Y-31364D01*
X106002Y-31310D01*
X106149Y-31162D01*
X106229Y-30969D01*
X106229Y-30894D01*
X107520Y-29602D01*
X107520Y-29602D01*
X107605Y-29475D01*
X107635Y-29326D01*
X107635Y-29326D01*
X107635Y-28894D01*
X107647Y-28894D01*
X107739Y-28856D01*
X107810Y-28786D01*
X107848Y-28694D01*
X107848Y-28594D01*
X107848Y-27886D01*
X107810Y-27794D01*
X107740Y-27723D01*
X107686Y-27701D01*
X107706Y-27681D01*
X109902Y-27681D01*
X110058Y-27837D01*
X110058Y-37004D01*
X109641Y-36588D01*
X109514Y-36503D01*
X109365Y-36473D01*
X109234Y-36473D01*
X109234Y-30940D01*
X109223Y-30732D01*
X109165Y-30592D01*
X109072Y-30567D01*
X109002Y-30638D01*
X109002Y-30497D01*
X108977Y-30404D01*
X108954Y-30396D01*
X108954Y-29406D01*
X108943Y-29188D01*
X108881Y-29037D01*
X108785Y-29009D01*
X108715Y-29080D01*
X108715Y-28939D01*
X108687Y-28843D01*
X108481Y-28770D01*
X108263Y-28781D01*
X108112Y-28843D01*
X108084Y-28939D01*
X108400Y-29254D01*
X108715Y-28939D01*
X108715Y-29080D01*
X108470Y-29325D01*
X108785Y-29640D01*
X108881Y-29612D01*
X108954Y-29406D01*
X108954Y-30396D01*
X108780Y-30335D01*
X108715Y-30338D01*
X108715Y-29710D01*
X108400Y-29395D01*
X108329Y-29466D01*
X108329Y-29325D01*
X108014Y-29009D01*
X107918Y-29037D01*
X107845Y-29243D01*
X107856Y-29461D01*
X107918Y-29612D01*
X108014Y-29640D01*
X108329Y-29325D01*
X108329Y-29466D01*
X108084Y-29710D01*
X108112Y-29806D01*
X108318Y-29879D01*
X108536Y-29868D01*
X108687Y-29806D01*
X108715Y-29710D01*
X108715Y-30338D01*
X108572Y-30346D01*
X108432Y-30404D01*
X108407Y-30497D01*
X108705Y-30794D01*
X109002Y-30497D01*
X109002Y-30638D01*
X108775Y-30865D01*
X109072Y-31162D01*
X109165Y-31137D01*
X109234Y-30940D01*
X109234Y-36473D01*
X109055Y-36473D01*
X109002Y-36420D01*
X108869Y-36364D01*
X109002Y-36310D01*
X109149Y-36162D01*
X109229Y-35969D01*
X109230Y-35761D01*
X109150Y-35568D01*
X109002Y-35420D01*
X108869Y-35364D01*
X109002Y-35310D01*
X109149Y-35162D01*
X109229Y-34969D01*
X109230Y-34761D01*
X109150Y-34568D01*
X109002Y-34420D01*
X108869Y-34364D01*
X109002Y-34310D01*
X109149Y-34162D01*
X109229Y-33969D01*
X109230Y-33761D01*
X109150Y-33568D01*
X109002Y-33420D01*
X108869Y-33364D01*
X109002Y-33310D01*
X109149Y-33162D01*
X109229Y-32969D01*
X109230Y-32761D01*
X109150Y-32568D01*
X109002Y-32420D01*
X108869Y-32364D01*
X109002Y-32310D01*
X109149Y-32162D01*
X109229Y-31969D01*
X109230Y-31761D01*
X109150Y-31568D01*
X109002Y-31420D01*
X108876Y-31367D01*
X108977Y-31325D01*
X109002Y-31232D01*
X108705Y-30935D01*
X108634Y-31006D01*
X108634Y-30865D01*
X108337Y-30567D01*
X108244Y-30592D01*
X108175Y-30789D01*
X108186Y-30997D01*
X108244Y-31137D01*
X108337Y-31162D01*
X108634Y-30865D01*
X108634Y-31006D01*
X108407Y-31232D01*
X108432Y-31325D01*
X108542Y-31364D01*
X108408Y-31419D01*
X108260Y-31567D01*
X108180Y-31760D01*
X108179Y-31968D01*
X108259Y-32162D01*
X108407Y-32309D01*
X108540Y-32365D01*
X108408Y-32419D01*
X108260Y-32567D01*
X108180Y-32760D01*
X108179Y-32968D01*
X108259Y-33162D01*
X108407Y-33309D01*
X108540Y-33365D01*
X108408Y-33419D01*
X108260Y-33567D01*
X108180Y-33760D01*
X108179Y-33968D01*
X108259Y-34162D01*
X108407Y-34309D01*
X108540Y-34365D01*
X108408Y-34419D01*
X108260Y-34567D01*
X108180Y-34760D01*
X108179Y-34968D01*
X108259Y-35162D01*
X108407Y-35309D01*
X108540Y-35365D01*
X108408Y-35419D01*
X108260Y-35567D01*
X108180Y-35760D01*
X108179Y-35968D01*
X108259Y-36162D01*
X108407Y-36309D01*
X108540Y-36365D01*
X108408Y-36419D01*
X108260Y-36567D01*
X108180Y-36760D01*
X108179Y-36968D01*
X108259Y-37162D01*
X108407Y-37309D01*
X108479Y-37339D01*
X108380Y-37339D01*
X108288Y-37377D01*
X108218Y-37448D01*
X108180Y-37540D01*
X108179Y-37639D01*
X108179Y-38189D01*
X108217Y-38281D01*
X108288Y-38351D01*
X108313Y-38362D01*
X108313Y-41612D01*
X106037Y-43888D01*
X85480Y-43888D01*
X85330Y-43918D01*
X85203Y-44003D01*
X83603Y-45602D01*
X81572Y-45602D01*
X81572Y-44473D01*
X81561Y-44249D01*
X81496Y-44091D01*
X81399Y-44062D01*
X81073Y-44388D01*
X81399Y-44714D01*
X81496Y-44685D01*
X81572Y-44473D01*
X81572Y-45602D01*
X81328Y-45602D01*
X81328Y-44784D01*
X81002Y-44458D01*
X80931Y-44529D01*
X80931Y-44388D01*
X80605Y-44062D01*
X80508Y-44091D01*
X80432Y-44302D01*
X80443Y-44527D01*
X80508Y-44685D01*
X80605Y-44714D01*
X80931Y-44388D01*
X80931Y-44529D01*
X80676Y-44784D01*
X80705Y-44881D01*
X80917Y-44957D01*
X81141Y-44947D01*
X81299Y-44881D01*
X81328Y-44784D01*
X81328Y-45602D01*
X72100Y-45602D01*
X72100Y-43337D01*
X71898Y-42850D01*
X71526Y-42477D01*
X71039Y-42275D01*
X70512Y-42274D01*
X70025Y-42476D01*
X69652Y-42848D01*
X69450Y-43335D01*
X69449Y-43862D01*
X69651Y-44349D01*
X70023Y-44722D01*
X70510Y-44924D01*
X71037Y-44925D01*
X71524Y-44723D01*
X71897Y-44351D01*
X72099Y-43864D01*
X72100Y-43337D01*
X72100Y-45602D01*
X71170Y-45602D01*
X71122Y-45555D01*
X70929Y-45475D01*
X70721Y-45474D01*
X70528Y-45554D01*
X70479Y-45602D01*
X70355Y-45602D01*
X70235Y-45482D01*
X70013Y-45390D01*
X69773Y-45390D01*
X69551Y-45481D01*
X69481Y-45551D01*
X69459Y-45498D01*
X69389Y-45428D01*
X69297Y-45390D01*
X69241Y-45390D01*
X69241Y-40871D01*
X69664Y-40448D01*
X69668Y-40448D01*
X69832Y-40612D01*
X70054Y-40704D01*
X70294Y-40704D01*
X70516Y-40612D01*
X70586Y-40542D01*
X70608Y-40595D01*
X70678Y-40666D01*
X70770Y-40704D01*
X70870Y-40704D01*
X71170Y-40704D01*
X74131Y-43665D01*
X74258Y-43750D01*
X74408Y-43779D01*
X80595Y-43779D01*
X80681Y-43866D01*
X80727Y-43885D01*
X80705Y-43894D01*
X80676Y-43991D01*
X81002Y-44317D01*
X81328Y-43991D01*
X81299Y-43894D01*
X81276Y-43886D01*
X81321Y-43867D01*
X81481Y-43708D01*
X81567Y-43501D01*
X81567Y-43276D01*
X81481Y-43068D01*
X81322Y-42909D01*
X81271Y-42888D01*
X81321Y-42867D01*
X81481Y-42708D01*
X81567Y-42501D01*
X81567Y-42276D01*
X81481Y-42068D01*
X81322Y-41909D01*
X81271Y-41888D01*
X81321Y-41867D01*
X81481Y-41708D01*
X81567Y-41501D01*
X81567Y-41276D01*
X81481Y-41068D01*
X81322Y-40909D01*
X81271Y-40888D01*
X81321Y-40867D01*
X81481Y-40708D01*
X81567Y-40501D01*
X81567Y-40276D01*
X81481Y-40068D01*
X81322Y-39909D01*
X81271Y-39888D01*
X81321Y-39867D01*
X81481Y-39708D01*
X81567Y-39501D01*
X81567Y-39276D01*
X81481Y-39068D01*
X81322Y-38909D01*
X81271Y-38888D01*
X81321Y-38867D01*
X81481Y-38708D01*
X81567Y-38501D01*
X81567Y-38276D01*
X81481Y-38068D01*
X81322Y-37909D01*
X81271Y-37888D01*
X81321Y-37867D01*
X81481Y-37708D01*
X81567Y-37501D01*
X81567Y-37276D01*
X81481Y-37068D01*
X81366Y-36953D01*
X81366Y-36953D01*
X81458Y-36915D01*
X81529Y-36844D01*
X81567Y-36753D01*
X81567Y-36653D01*
X81567Y-36023D01*
X81529Y-35931D01*
X81459Y-35861D01*
X81367Y-35823D01*
X81267Y-35823D01*
X80991Y-35823D01*
X77991Y-32823D01*
X77864Y-32738D01*
X77714Y-32708D01*
X71783Y-32708D01*
X71783Y-32194D01*
X71773Y-31954D01*
X71701Y-31779D01*
X71600Y-31745D01*
X71245Y-32100D01*
X71600Y-32454D01*
X71701Y-32420D01*
X71783Y-32194D01*
X71783Y-32708D01*
X71561Y-32708D01*
X71486Y-32634D01*
X71481Y-32631D01*
X71495Y-32626D01*
X71529Y-32525D01*
X71175Y-32170D01*
X71104Y-32241D01*
X71104Y-32100D01*
X70749Y-31745D01*
X70675Y-31770D01*
X70600Y-31745D01*
X70245Y-32100D01*
X70600Y-32454D01*
X70675Y-32429D01*
X70749Y-32454D01*
X71104Y-32100D01*
X71104Y-32241D01*
X70820Y-32525D01*
X70854Y-32626D01*
X70868Y-32631D01*
X70863Y-32633D01*
X70709Y-32788D01*
X70675Y-32869D01*
X70641Y-32788D01*
X70486Y-32634D01*
X70481Y-32631D01*
X70495Y-32626D01*
X70529Y-32525D01*
X70175Y-32170D01*
X70104Y-32241D01*
X70104Y-32100D01*
X69749Y-31745D01*
X69648Y-31779D01*
X69566Y-32005D01*
X69576Y-32245D01*
X69648Y-32420D01*
X69749Y-32454D01*
X70104Y-32100D01*
X70104Y-32241D01*
X69820Y-32525D01*
X69854Y-32626D01*
X69868Y-32631D01*
X69863Y-32633D01*
X69745Y-32751D01*
X66900Y-32751D01*
X66900Y-32751D01*
X66766Y-32778D01*
X66653Y-32853D01*
X66653Y-32853D01*
X65643Y-33863D01*
X65643Y-26098D01*
X65670Y-26161D01*
X65961Y-26453D01*
X66342Y-26612D01*
X66755Y-26612D01*
X67136Y-26454D01*
X67428Y-26163D01*
X67587Y-25782D01*
X67587Y-25369D01*
X67429Y-24988D01*
X67186Y-24744D01*
X110763Y-24744D01*
X110571Y-24936D01*
X110412Y-25317D01*
X110412Y-25730D01*
X110570Y-26111D01*
X110861Y-26403D01*
X111242Y-26562D01*
X111655Y-26562D01*
X112036Y-26404D01*
X112230Y-26211D01*
X112230Y-53913D01*
M02*
