G04 (created by PCBNEW (2013-07-07 BZR 4022)-stable) date 09-Jan-14 2:10:53 PM*
%MOIN*%
G04 Gerber Fmt 3.4, Leading zero omitted, Abs format*
%FSLAX34Y34*%
G01*
G70*
G90*
G04 APERTURE LIST*
%ADD10C,0.005*%
%ADD11C,0.00393701*%
%ADD12C,0.00787402*%
%ADD13C,0.011811*%
G04 APERTURE END LIST*
G54D10*
G54D11*
X65364Y-55600D02*
X65797Y-55600D01*
X65364Y-50216D02*
X65364Y-55600D01*
X65374Y-24468D02*
X65875Y-24468D01*
X65374Y-50246D02*
X65374Y-24468D01*
X65750Y-24475D02*
X65975Y-24475D01*
X112500Y-55600D02*
X65750Y-55600D01*
X112500Y-24475D02*
X112500Y-55600D01*
X65925Y-24475D02*
X112500Y-24475D01*
G54D12*
X75131Y-30006D02*
X75368Y-30243D01*
X75368Y-30006D02*
X75131Y-30243D01*
X75131Y-31006D02*
X75368Y-31243D01*
X75368Y-31006D02*
X75131Y-31243D01*
X82285Y-32081D02*
X82522Y-32318D01*
X82522Y-32081D02*
X82285Y-32318D01*
X82285Y-33081D02*
X82522Y-33318D01*
X82522Y-33081D02*
X82285Y-33318D01*
X85461Y-28911D02*
X85698Y-29148D01*
X85698Y-28911D02*
X85461Y-29148D01*
X85461Y-34911D02*
X85698Y-35148D01*
X85698Y-34911D02*
X85461Y-35148D01*
X86291Y-40321D02*
X86528Y-40558D01*
X86528Y-40321D02*
X86291Y-40558D01*
X86291Y-46321D02*
X86528Y-46558D01*
X86528Y-46321D02*
X86291Y-46558D01*
X87701Y-40341D02*
X87938Y-40578D01*
X87938Y-40341D02*
X87701Y-40578D01*
X87701Y-46341D02*
X87938Y-46578D01*
X87938Y-46341D02*
X87701Y-46578D01*
X89161Y-40341D02*
X89398Y-40578D01*
X89398Y-40341D02*
X89161Y-40578D01*
X89161Y-46341D02*
X89398Y-46578D01*
X89398Y-46341D02*
X89161Y-46578D01*
X91691Y-34471D02*
X91928Y-34708D01*
X91928Y-34471D02*
X91691Y-34708D01*
X91691Y-40471D02*
X91928Y-40708D01*
X91928Y-40471D02*
X91691Y-40708D01*
X97651Y-29101D02*
X97888Y-29338D01*
X97888Y-29101D02*
X97651Y-29338D01*
X97651Y-35101D02*
X97888Y-35338D01*
X97888Y-35101D02*
X97651Y-35338D01*
X100401Y-29861D02*
X100638Y-30098D01*
X100638Y-29861D02*
X100401Y-30098D01*
X100401Y-35861D02*
X100638Y-36098D01*
X100638Y-35861D02*
X100401Y-36098D01*
X101791Y-29821D02*
X102028Y-30058D01*
X102028Y-29821D02*
X101791Y-30058D01*
X101791Y-35821D02*
X102028Y-36058D01*
X102028Y-35821D02*
X101791Y-36058D01*
X104331Y-42731D02*
X104568Y-42968D01*
X104568Y-42731D02*
X104331Y-42968D01*
X104331Y-48731D02*
X104568Y-48968D01*
X104568Y-48731D02*
X104331Y-48968D01*
X105281Y-41631D02*
X105518Y-41868D01*
X105518Y-41631D02*
X105281Y-41868D01*
X107125Y-27171D02*
X107362Y-27408D01*
X107362Y-27171D02*
X107125Y-27408D01*
X107125Y-28171D02*
X107362Y-28408D01*
X107362Y-28171D02*
X107125Y-28408D01*
X111281Y-41631D02*
X111518Y-41868D01*
X111518Y-41631D02*
X111281Y-41868D01*
X70985Y-46000D02*
G75*
G03X70985Y-46000I-160J0D01*
G74*
G01*
X70985Y-48000D02*
G75*
G03X70985Y-48000I-160J0D01*
G74*
G01*
X71710Y-53125D02*
G75*
G03X71710Y-53125I-160J0D01*
G74*
G01*
X71885Y-48100D02*
G75*
G03X71885Y-48100I-160J0D01*
G74*
G01*
X71885Y-50100D02*
G75*
G03X71885Y-50100I-160J0D01*
G74*
G01*
X72735Y-47050D02*
G75*
G03X72735Y-47050I-160J0D01*
G74*
G01*
X72735Y-49050D02*
G75*
G03X72735Y-49050I-160J0D01*
G74*
G01*
X72760Y-50200D02*
G75*
G03X72760Y-50200I-160J0D01*
G74*
G01*
X72760Y-52200D02*
G75*
G03X72760Y-52200I-160J0D01*
G74*
G01*
X73660Y-49150D02*
G75*
G03X73660Y-49150I-160J0D01*
G74*
G01*
X73660Y-51150D02*
G75*
G03X73660Y-51150I-160J0D01*
G74*
G01*
X73710Y-53125D02*
G75*
G03X73710Y-53125I-160J0D01*
G74*
G01*
X81162Y-36388D02*
G75*
G03X81162Y-36388I-160J0D01*
G74*
G01*
X81162Y-37388D02*
G75*
G03X81162Y-37388I-160J0D01*
G74*
G01*
X81162Y-38388D02*
G75*
G03X81162Y-38388I-160J0D01*
G74*
G01*
X81162Y-39388D02*
G75*
G03X81162Y-39388I-160J0D01*
G74*
G01*
X81162Y-40388D02*
G75*
G03X81162Y-40388I-160J0D01*
G74*
G01*
X81162Y-41388D02*
G75*
G03X81162Y-41388I-160J0D01*
G74*
G01*
X81162Y-42388D02*
G75*
G03X81162Y-42388I-160J0D01*
G74*
G01*
X81162Y-43388D02*
G75*
G03X81162Y-43388I-160J0D01*
G74*
G01*
X81162Y-44388D02*
G75*
G03X81162Y-44388I-160J0D01*
G74*
G01*
X84162Y-36388D02*
G75*
G03X84162Y-36388I-160J0D01*
G74*
G01*
X84162Y-37388D02*
G75*
G03X84162Y-37388I-160J0D01*
G74*
G01*
X84162Y-38388D02*
G75*
G03X84162Y-38388I-160J0D01*
G74*
G01*
X84162Y-39388D02*
G75*
G03X84162Y-39388I-160J0D01*
G74*
G01*
X84162Y-40388D02*
G75*
G03X84162Y-40388I-160J0D01*
G74*
G01*
X84162Y-41388D02*
G75*
G03X84162Y-41388I-160J0D01*
G74*
G01*
X84162Y-42388D02*
G75*
G03X84162Y-42388I-160J0D01*
G74*
G01*
X84162Y-43388D02*
G75*
G03X84162Y-43388I-160J0D01*
G74*
G01*
X84162Y-44388D02*
G75*
G03X84162Y-44388I-160J0D01*
G74*
G01*
X99060Y-48525D02*
G75*
G03X99060Y-48525I-160J0D01*
G74*
G01*
X103060Y-48525D02*
G75*
G03X103060Y-48525I-160J0D01*
G74*
G01*
X105865Y-30865D02*
G75*
G03X105865Y-30865I-160J0D01*
G74*
G01*
X105865Y-31865D02*
G75*
G03X105865Y-31865I-160J0D01*
G74*
G01*
X105865Y-32865D02*
G75*
G03X105865Y-32865I-160J0D01*
G74*
G01*
X105865Y-33865D02*
G75*
G03X105865Y-33865I-160J0D01*
G74*
G01*
X105865Y-34865D02*
G75*
G03X105865Y-34865I-160J0D01*
G74*
G01*
X105865Y-35865D02*
G75*
G03X105865Y-35865I-160J0D01*
G74*
G01*
X105865Y-36865D02*
G75*
G03X105865Y-36865I-160J0D01*
G74*
G01*
X105865Y-37865D02*
G75*
G03X105865Y-37865I-160J0D01*
G74*
G01*
X108560Y-25325D02*
G75*
G03X108560Y-25325I-160J0D01*
G74*
G01*
X108560Y-29325D02*
G75*
G03X108560Y-29325I-160J0D01*
G74*
G01*
X108865Y-30865D02*
G75*
G03X108865Y-30865I-160J0D01*
G74*
G01*
X108865Y-31865D02*
G75*
G03X108865Y-31865I-160J0D01*
G74*
G01*
X108865Y-32865D02*
G75*
G03X108865Y-32865I-160J0D01*
G74*
G01*
X108865Y-33865D02*
G75*
G03X108865Y-33865I-160J0D01*
G74*
G01*
X108865Y-34865D02*
G75*
G03X108865Y-34865I-160J0D01*
G74*
G01*
X108865Y-35865D02*
G75*
G03X108865Y-35865I-160J0D01*
G74*
G01*
X108865Y-36865D02*
G75*
G03X108865Y-36865I-160J0D01*
G74*
G01*
X108865Y-37865D02*
G75*
G03X108865Y-37865I-160J0D01*
G74*
G01*
X70175Y-32920D02*
X70175Y-33280D01*
X69995Y-33100D02*
X70355Y-33100D01*
X71175Y-32920D02*
X71175Y-33280D01*
X70995Y-33100D02*
X71355Y-33100D01*
X80080Y-27889D02*
X80080Y-28249D01*
X79900Y-28069D02*
X80260Y-28069D01*
X80080Y-51550D02*
X80080Y-51910D01*
X79900Y-51730D02*
X80260Y-51730D01*
X81080Y-27889D02*
X81080Y-28249D01*
X80900Y-28069D02*
X81260Y-28069D01*
X81080Y-51550D02*
X81080Y-51910D01*
X80900Y-51730D02*
X81260Y-51730D01*
X82080Y-27889D02*
X82080Y-28249D01*
X81900Y-28069D02*
X82260Y-28069D01*
X82080Y-51550D02*
X82080Y-51910D01*
X81900Y-51730D02*
X82260Y-51730D01*
X83080Y-27889D02*
X83080Y-28249D01*
X82900Y-28069D02*
X83260Y-28069D01*
X83080Y-51550D02*
X83080Y-51910D01*
X82900Y-51730D02*
X83260Y-51730D01*
X84072Y-27889D02*
X84072Y-28249D01*
X83892Y-28069D02*
X84252Y-28069D01*
X84080Y-51550D02*
X84080Y-51910D01*
X83900Y-51730D02*
X84260Y-51730D01*
X99150Y-27889D02*
X99150Y-28249D01*
X98970Y-28069D02*
X99330Y-28069D01*
X99150Y-51550D02*
X99150Y-51910D01*
X98970Y-51730D02*
X99330Y-51730D01*
X100150Y-27889D02*
X100150Y-28249D01*
X99970Y-28069D02*
X100330Y-28069D01*
X100150Y-51550D02*
X100150Y-51910D01*
X99970Y-51730D02*
X100330Y-51730D01*
X101150Y-27889D02*
X101150Y-28249D01*
X100970Y-28069D02*
X101330Y-28069D01*
X101150Y-51550D02*
X101150Y-51910D01*
X100970Y-51730D02*
X101330Y-51730D01*
X102150Y-27889D02*
X102150Y-28249D01*
X101970Y-28069D02*
X102330Y-28069D01*
X102150Y-51550D02*
X102150Y-51910D01*
X101970Y-51730D02*
X102330Y-51730D01*
X103142Y-27889D02*
X103142Y-28249D01*
X102962Y-28069D02*
X103322Y-28069D01*
X103150Y-51550D02*
X103150Y-51910D01*
X102970Y-51730D02*
X103330Y-51730D01*
X69032Y-46133D02*
X69032Y-45855D01*
X68753Y-45855D01*
X68753Y-46133D01*
X69032Y-46133D01*
X69032Y-47133D02*
X69032Y-46855D01*
X68753Y-46855D01*
X68753Y-47133D01*
X69032Y-47133D01*
X69032Y-48133D02*
X69032Y-47855D01*
X68753Y-47855D01*
X68753Y-48133D01*
X69032Y-48133D01*
X69032Y-49133D02*
X69032Y-48855D01*
X68753Y-48855D01*
X68753Y-49133D01*
X69032Y-49133D01*
X69032Y-50133D02*
X69032Y-49855D01*
X68753Y-49855D01*
X68753Y-50133D01*
X69032Y-50133D01*
X69032Y-51133D02*
X69032Y-50855D01*
X68753Y-50855D01*
X68753Y-51133D01*
X69032Y-51133D01*
X69032Y-52133D02*
X69032Y-51855D01*
X68753Y-51855D01*
X68753Y-52133D01*
X69032Y-52133D01*
X69032Y-53133D02*
X69032Y-52855D01*
X68753Y-52855D01*
X68753Y-53133D01*
X69032Y-53133D01*
X70032Y-46133D02*
X70032Y-45855D01*
X69753Y-45855D01*
X69753Y-46133D01*
X70032Y-46133D01*
X70032Y-47133D02*
X70032Y-46855D01*
X69753Y-46855D01*
X69753Y-47133D01*
X70032Y-47133D01*
X70032Y-48133D02*
X70032Y-47855D01*
X69753Y-47855D01*
X69753Y-48133D01*
X70032Y-48133D01*
X70032Y-49133D02*
X70032Y-48855D01*
X69753Y-48855D01*
X69753Y-49133D01*
X70032Y-49133D01*
X70032Y-50133D02*
X70032Y-49855D01*
X69753Y-49855D01*
X69753Y-50133D01*
X70032Y-50133D01*
X70032Y-51133D02*
X70032Y-50855D01*
X69753Y-50855D01*
X69753Y-51133D01*
X70032Y-51133D01*
X70032Y-52133D02*
X70032Y-51855D01*
X69753Y-51855D01*
X69753Y-52133D01*
X70032Y-52133D01*
X70032Y-53133D02*
X70032Y-52855D01*
X69753Y-52855D01*
X69753Y-53133D01*
X70032Y-53133D01*
X70314Y-31239D02*
X70314Y-30960D01*
X70035Y-30960D01*
X70035Y-31239D01*
X70314Y-31239D01*
X70314Y-32239D02*
X70314Y-31960D01*
X70035Y-31960D01*
X70035Y-32239D01*
X70314Y-32239D01*
X70314Y-34239D02*
X70314Y-33960D01*
X70035Y-33960D01*
X70035Y-34239D01*
X70314Y-34239D01*
X70314Y-35239D02*
X70314Y-34960D01*
X70035Y-34960D01*
X70035Y-35239D01*
X70314Y-35239D01*
X70314Y-36239D02*
X70314Y-35960D01*
X70035Y-35960D01*
X70035Y-36239D01*
X70314Y-36239D01*
X70314Y-37239D02*
X70314Y-36960D01*
X70035Y-36960D01*
X70035Y-37239D01*
X70314Y-37239D01*
X70314Y-38239D02*
X70314Y-37960D01*
X70035Y-37960D01*
X70035Y-38239D01*
X70314Y-38239D01*
X70314Y-39239D02*
X70314Y-38960D01*
X70035Y-38960D01*
X70035Y-39239D01*
X70314Y-39239D01*
X70314Y-40239D02*
X70314Y-39960D01*
X70035Y-39960D01*
X70035Y-40239D01*
X70314Y-40239D01*
X71314Y-31239D02*
X71314Y-30960D01*
X71035Y-30960D01*
X71035Y-31239D01*
X71314Y-31239D01*
X71314Y-32239D02*
X71314Y-31960D01*
X71035Y-31960D01*
X71035Y-32239D01*
X71314Y-32239D01*
X71314Y-34239D02*
X71314Y-33960D01*
X71035Y-33960D01*
X71035Y-34239D01*
X71314Y-34239D01*
X71314Y-35239D02*
X71314Y-34960D01*
X71035Y-34960D01*
X71035Y-35239D01*
X71314Y-35239D01*
X71314Y-36239D02*
X71314Y-35960D01*
X71035Y-35960D01*
X71035Y-36239D01*
X71314Y-36239D01*
X71314Y-37239D02*
X71314Y-36960D01*
X71035Y-36960D01*
X71035Y-37239D01*
X71314Y-37239D01*
X71314Y-38239D02*
X71314Y-37960D01*
X71035Y-37960D01*
X71035Y-38239D01*
X71314Y-38239D01*
X71314Y-39239D02*
X71314Y-38960D01*
X71035Y-38960D01*
X71035Y-39239D01*
X71314Y-39239D01*
X71314Y-40239D02*
X71314Y-39960D01*
X71035Y-39960D01*
X71035Y-40239D01*
X71314Y-40239D01*
X106325Y-50125D02*
X106525Y-49925D01*
X106325Y-49725D01*
X106125Y-49925D01*
X106325Y-50125D01*
X106325Y-51125D02*
X106525Y-50925D01*
X106325Y-50725D01*
X106125Y-50925D01*
X106325Y-51125D01*
X106325Y-52125D02*
X106525Y-51925D01*
X106325Y-51725D01*
X106125Y-51925D01*
X106325Y-52125D01*
X109475Y-50100D02*
X109675Y-49900D01*
X109475Y-49700D01*
X109275Y-49900D01*
X109475Y-50100D01*
X109475Y-51100D02*
X109675Y-50900D01*
X109475Y-50700D01*
X109275Y-50900D01*
X109475Y-51100D01*
X109475Y-52100D02*
X109675Y-51900D01*
X109475Y-51700D01*
X109275Y-51900D01*
X109475Y-52100D01*
X70245Y-27070D02*
X71305Y-28130D01*
X71305Y-27070D02*
X70245Y-28130D01*
X71305Y-27600D02*
G75*
G03X71305Y-27600I-530J0D01*
G74*
G01*
X70245Y-43070D02*
X71305Y-44130D01*
X71305Y-43070D02*
X70245Y-44130D01*
X71305Y-43600D02*
G75*
G03X71305Y-43600I-530J0D01*
G74*
G01*
X65712Y-53762D02*
X67287Y-55337D01*
X67287Y-53762D02*
X65712Y-55337D01*
X66500Y-53762D02*
X66500Y-55337D01*
X65712Y-54550D02*
X67287Y-54550D01*
X65762Y-24787D02*
X67337Y-26362D01*
X67337Y-24787D02*
X65762Y-26362D01*
X66550Y-24787D02*
X66550Y-26362D01*
X65762Y-25575D02*
X67337Y-25575D01*
X110612Y-53762D02*
X112187Y-55337D01*
X112187Y-53762D02*
X110612Y-55337D01*
X111400Y-53762D02*
X111400Y-55337D01*
X110612Y-54550D02*
X112187Y-54550D01*
X110662Y-24737D02*
X112237Y-26312D01*
X112237Y-24737D02*
X110662Y-26312D01*
X111450Y-24737D02*
X111450Y-26312D01*
X110662Y-25525D02*
X112237Y-25525D01*
G54D13*
X66413Y-57397D02*
X66413Y-56216D01*
X66694Y-56216D01*
X66863Y-56272D01*
X66975Y-56384D01*
X67031Y-56497D01*
X67088Y-56722D01*
X67088Y-56891D01*
X67031Y-57116D01*
X66975Y-57228D01*
X66863Y-57341D01*
X66694Y-57397D01*
X66413Y-57397D01*
X67594Y-57397D02*
X67594Y-56609D01*
X67594Y-56834D02*
X67650Y-56722D01*
X67706Y-56666D01*
X67819Y-56609D01*
X67931Y-56609D01*
X68325Y-57397D02*
X68325Y-56609D01*
X68325Y-56216D02*
X68269Y-56272D01*
X68325Y-56328D01*
X68381Y-56272D01*
X68325Y-56216D01*
X68325Y-56328D01*
X69056Y-57397D02*
X68944Y-57341D01*
X68887Y-57228D01*
X68887Y-56216D01*
X69675Y-57397D02*
X69562Y-57341D01*
X69506Y-57228D01*
X69506Y-56216D01*
X71025Y-57397D02*
X71025Y-56216D01*
X71418Y-57059D01*
X71812Y-56216D01*
X71812Y-57397D01*
X72881Y-57397D02*
X72881Y-56778D01*
X72824Y-56666D01*
X72712Y-56609D01*
X72487Y-56609D01*
X72374Y-56666D01*
X72881Y-57341D02*
X72768Y-57397D01*
X72487Y-57397D01*
X72374Y-57341D01*
X72318Y-57228D01*
X72318Y-57116D01*
X72374Y-57003D01*
X72487Y-56947D01*
X72768Y-56947D01*
X72881Y-56891D01*
X73443Y-56609D02*
X73443Y-57791D01*
X73443Y-56666D02*
X73555Y-56609D01*
X73780Y-56609D01*
X73893Y-56666D01*
X73949Y-56722D01*
X74005Y-56834D01*
X74005Y-57172D01*
X73949Y-57284D01*
X73893Y-57341D01*
X73780Y-57397D01*
X73555Y-57397D01*
X73443Y-57341D01*
X74512Y-57284D02*
X74568Y-57341D01*
X74512Y-57397D01*
X74455Y-57341D01*
X74512Y-57284D01*
X74512Y-57397D01*
X74512Y-56666D02*
X74568Y-56722D01*
X74512Y-56778D01*
X74455Y-56722D01*
X74512Y-56666D01*
X74512Y-56778D01*
X65108Y-59281D02*
X65344Y-59517D01*
X65344Y-59281D02*
X65108Y-59517D01*
X66638Y-58696D02*
X66750Y-58696D01*
X66863Y-58752D01*
X66919Y-58809D01*
X66975Y-58921D01*
X67031Y-59146D01*
X67031Y-59427D01*
X66975Y-59652D01*
X66919Y-59765D01*
X66863Y-59821D01*
X66750Y-59877D01*
X66638Y-59877D01*
X66525Y-59821D01*
X66469Y-59765D01*
X66413Y-59652D01*
X66356Y-59427D01*
X66356Y-59146D01*
X66413Y-58921D01*
X66469Y-58809D01*
X66525Y-58752D01*
X66638Y-58696D01*
X67537Y-59765D02*
X67594Y-59821D01*
X67537Y-59877D01*
X67481Y-59821D01*
X67537Y-59765D01*
X67537Y-59877D01*
X68606Y-58696D02*
X68381Y-58696D01*
X68269Y-58752D01*
X68212Y-58809D01*
X68100Y-58977D01*
X68044Y-59202D01*
X68044Y-59652D01*
X68100Y-59765D01*
X68156Y-59821D01*
X68269Y-59877D01*
X68494Y-59877D01*
X68606Y-59821D01*
X68662Y-59765D01*
X68719Y-59652D01*
X68719Y-59371D01*
X68662Y-59258D01*
X68606Y-59202D01*
X68494Y-59146D01*
X68269Y-59146D01*
X68156Y-59202D01*
X68100Y-59258D01*
X68044Y-59371D01*
X69450Y-58696D02*
X69562Y-58696D01*
X69675Y-58752D01*
X69731Y-58809D01*
X69787Y-58921D01*
X69843Y-59146D01*
X69843Y-59427D01*
X69787Y-59652D01*
X69731Y-59765D01*
X69675Y-59821D01*
X69562Y-59877D01*
X69450Y-59877D01*
X69337Y-59821D01*
X69281Y-59765D01*
X69225Y-59652D01*
X69169Y-59427D01*
X69169Y-59146D01*
X69225Y-58921D01*
X69281Y-58809D01*
X69337Y-58752D01*
X69450Y-58696D01*
X70350Y-59877D02*
X70350Y-59090D01*
X70350Y-59202D02*
X70406Y-59146D01*
X70518Y-59090D01*
X70687Y-59090D01*
X70800Y-59146D01*
X70856Y-59258D01*
X70856Y-59877D01*
X70856Y-59258D02*
X70912Y-59146D01*
X71025Y-59090D01*
X71193Y-59090D01*
X71306Y-59146D01*
X71362Y-59258D01*
X71362Y-59877D01*
X71924Y-59877D02*
X71924Y-59090D01*
X71924Y-59202D02*
X71981Y-59146D01*
X72093Y-59090D01*
X72262Y-59090D01*
X72374Y-59146D01*
X72431Y-59258D01*
X72431Y-59877D01*
X72431Y-59258D02*
X72487Y-59146D01*
X72599Y-59090D01*
X72768Y-59090D01*
X72881Y-59146D01*
X72937Y-59258D01*
X72937Y-59877D01*
X75243Y-58640D02*
X74230Y-60158D01*
X76761Y-58696D02*
X76874Y-58696D01*
X76986Y-58752D01*
X77043Y-58809D01*
X77099Y-58921D01*
X77155Y-59146D01*
X77155Y-59427D01*
X77099Y-59652D01*
X77043Y-59765D01*
X76986Y-59821D01*
X76874Y-59877D01*
X76761Y-59877D01*
X76649Y-59821D01*
X76593Y-59765D01*
X76536Y-59652D01*
X76480Y-59427D01*
X76480Y-59146D01*
X76536Y-58921D01*
X76593Y-58809D01*
X76649Y-58752D01*
X76761Y-58696D01*
X77661Y-59765D02*
X77717Y-59821D01*
X77661Y-59877D01*
X77605Y-59821D01*
X77661Y-59765D01*
X77661Y-59877D01*
X78449Y-58696D02*
X78561Y-58696D01*
X78674Y-58752D01*
X78730Y-58809D01*
X78786Y-58921D01*
X78842Y-59146D01*
X78842Y-59427D01*
X78786Y-59652D01*
X78730Y-59765D01*
X78674Y-59821D01*
X78561Y-59877D01*
X78449Y-59877D01*
X78336Y-59821D01*
X78280Y-59765D01*
X78224Y-59652D01*
X78167Y-59427D01*
X78167Y-59146D01*
X78224Y-58921D01*
X78280Y-58809D01*
X78336Y-58752D01*
X78449Y-58696D01*
X79292Y-58809D02*
X79348Y-58752D01*
X79461Y-58696D01*
X79742Y-58696D01*
X79855Y-58752D01*
X79911Y-58809D01*
X79967Y-58921D01*
X79967Y-59034D01*
X79911Y-59202D01*
X79236Y-59877D01*
X79967Y-59877D01*
X80980Y-59090D02*
X80980Y-59877D01*
X80698Y-58640D02*
X80417Y-59483D01*
X81148Y-59483D01*
X81542Y-58696D02*
X81542Y-58921D01*
X81992Y-58696D02*
X81992Y-58921D01*
X83735Y-60327D02*
X83679Y-60271D01*
X83567Y-60102D01*
X83510Y-59990D01*
X83454Y-59821D01*
X83398Y-59540D01*
X83398Y-59315D01*
X83454Y-59034D01*
X83510Y-58865D01*
X83567Y-58752D01*
X83679Y-58584D01*
X83735Y-58527D01*
X84129Y-58809D02*
X84185Y-58752D01*
X84298Y-58696D01*
X84579Y-58696D01*
X84692Y-58752D01*
X84748Y-58809D01*
X84804Y-58921D01*
X84804Y-59034D01*
X84748Y-59202D01*
X84073Y-59877D01*
X84804Y-59877D01*
X85816Y-58696D02*
X85591Y-58696D01*
X85479Y-58752D01*
X85423Y-58809D01*
X85310Y-58977D01*
X85254Y-59202D01*
X85254Y-59652D01*
X85310Y-59765D01*
X85366Y-59821D01*
X85479Y-59877D01*
X85704Y-59877D01*
X85816Y-59821D01*
X85873Y-59765D01*
X85929Y-59652D01*
X85929Y-59371D01*
X85873Y-59258D01*
X85816Y-59202D01*
X85704Y-59146D01*
X85479Y-59146D01*
X85366Y-59202D01*
X85310Y-59258D01*
X85254Y-59371D01*
X87335Y-59877D02*
X87335Y-58696D01*
X87841Y-59877D02*
X87841Y-59258D01*
X87785Y-59146D01*
X87672Y-59090D01*
X87504Y-59090D01*
X87391Y-59146D01*
X87335Y-59202D01*
X88572Y-59877D02*
X88460Y-59821D01*
X88404Y-59765D01*
X88347Y-59652D01*
X88347Y-59315D01*
X88404Y-59202D01*
X88460Y-59146D01*
X88572Y-59090D01*
X88741Y-59090D01*
X88854Y-59146D01*
X88910Y-59202D01*
X88966Y-59315D01*
X88966Y-59652D01*
X88910Y-59765D01*
X88854Y-59821D01*
X88741Y-59877D01*
X88572Y-59877D01*
X89641Y-59877D02*
X89528Y-59821D01*
X89472Y-59708D01*
X89472Y-58696D01*
X90541Y-59821D02*
X90428Y-59877D01*
X90203Y-59877D01*
X90091Y-59821D01*
X90035Y-59708D01*
X90035Y-59258D01*
X90091Y-59146D01*
X90203Y-59090D01*
X90428Y-59090D01*
X90541Y-59146D01*
X90597Y-59258D01*
X90597Y-59371D01*
X90035Y-59483D01*
X91047Y-59821D02*
X91160Y-59877D01*
X91384Y-59877D01*
X91497Y-59821D01*
X91553Y-59708D01*
X91553Y-59652D01*
X91497Y-59540D01*
X91384Y-59483D01*
X91216Y-59483D01*
X91103Y-59427D01*
X91047Y-59315D01*
X91047Y-59258D01*
X91103Y-59146D01*
X91216Y-59090D01*
X91384Y-59090D01*
X91497Y-59146D01*
X91947Y-60327D02*
X92003Y-60271D01*
X92116Y-60102D01*
X92172Y-59990D01*
X92228Y-59821D01*
X92284Y-59540D01*
X92284Y-59315D01*
X92228Y-59034D01*
X92172Y-58865D01*
X92116Y-58752D01*
X92003Y-58584D01*
X91947Y-58527D01*
G54D12*
X65344Y-60958D02*
G75*
G03X65344Y-60958I-160J0D01*
G74*
G01*
G54D13*
X66638Y-60255D02*
X66750Y-60255D01*
X66863Y-60311D01*
X66919Y-60368D01*
X66975Y-60480D01*
X67031Y-60705D01*
X67031Y-60986D01*
X66975Y-61211D01*
X66919Y-61324D01*
X66863Y-61380D01*
X66750Y-61436D01*
X66638Y-61436D01*
X66525Y-61380D01*
X66469Y-61324D01*
X66413Y-61211D01*
X66356Y-60986D01*
X66356Y-60705D01*
X66413Y-60480D01*
X66469Y-60368D01*
X66525Y-60311D01*
X66638Y-60255D01*
X67537Y-61324D02*
X67594Y-61380D01*
X67537Y-61436D01*
X67481Y-61380D01*
X67537Y-61324D01*
X67537Y-61436D01*
X68269Y-60761D02*
X68156Y-60705D01*
X68100Y-60649D01*
X68044Y-60536D01*
X68044Y-60480D01*
X68100Y-60368D01*
X68156Y-60311D01*
X68269Y-60255D01*
X68494Y-60255D01*
X68606Y-60311D01*
X68662Y-60368D01*
X68719Y-60480D01*
X68719Y-60536D01*
X68662Y-60649D01*
X68606Y-60705D01*
X68494Y-60761D01*
X68269Y-60761D01*
X68156Y-60818D01*
X68100Y-60874D01*
X68044Y-60986D01*
X68044Y-61211D01*
X68100Y-61324D01*
X68156Y-61380D01*
X68269Y-61436D01*
X68494Y-61436D01*
X68606Y-61380D01*
X68662Y-61324D01*
X68719Y-61211D01*
X68719Y-60986D01*
X68662Y-60874D01*
X68606Y-60818D01*
X68494Y-60761D01*
X69843Y-61436D02*
X69169Y-61436D01*
X69506Y-61436D02*
X69506Y-60255D01*
X69393Y-60424D01*
X69281Y-60536D01*
X69169Y-60593D01*
X70350Y-61436D02*
X70350Y-60649D01*
X70350Y-60761D02*
X70406Y-60705D01*
X70518Y-60649D01*
X70687Y-60649D01*
X70800Y-60705D01*
X70856Y-60818D01*
X70856Y-61436D01*
X70856Y-60818D02*
X70912Y-60705D01*
X71025Y-60649D01*
X71193Y-60649D01*
X71306Y-60705D01*
X71362Y-60818D01*
X71362Y-61436D01*
X71924Y-61436D02*
X71924Y-60649D01*
X71924Y-60761D02*
X71981Y-60705D01*
X72093Y-60649D01*
X72262Y-60649D01*
X72374Y-60705D01*
X72431Y-60818D01*
X72431Y-61436D01*
X72431Y-60818D02*
X72487Y-60705D01*
X72599Y-60649D01*
X72768Y-60649D01*
X72881Y-60705D01*
X72937Y-60818D01*
X72937Y-61436D01*
X75243Y-60199D02*
X74230Y-61717D01*
X76761Y-60255D02*
X76874Y-60255D01*
X76986Y-60311D01*
X77043Y-60368D01*
X77099Y-60480D01*
X77155Y-60705D01*
X77155Y-60986D01*
X77099Y-61211D01*
X77043Y-61324D01*
X76986Y-61380D01*
X76874Y-61436D01*
X76761Y-61436D01*
X76649Y-61380D01*
X76593Y-61324D01*
X76536Y-61211D01*
X76480Y-60986D01*
X76480Y-60705D01*
X76536Y-60480D01*
X76593Y-60368D01*
X76649Y-60311D01*
X76761Y-60255D01*
X77661Y-61324D02*
X77717Y-61380D01*
X77661Y-61436D01*
X77605Y-61380D01*
X77661Y-61324D01*
X77661Y-61436D01*
X78449Y-60255D02*
X78561Y-60255D01*
X78674Y-60311D01*
X78730Y-60368D01*
X78786Y-60480D01*
X78842Y-60705D01*
X78842Y-60986D01*
X78786Y-61211D01*
X78730Y-61324D01*
X78674Y-61380D01*
X78561Y-61436D01*
X78449Y-61436D01*
X78336Y-61380D01*
X78280Y-61324D01*
X78224Y-61211D01*
X78167Y-60986D01*
X78167Y-60705D01*
X78224Y-60480D01*
X78280Y-60368D01*
X78336Y-60311D01*
X78449Y-60255D01*
X79236Y-60255D02*
X79967Y-60255D01*
X79573Y-60705D01*
X79742Y-60705D01*
X79855Y-60761D01*
X79911Y-60818D01*
X79967Y-60930D01*
X79967Y-61211D01*
X79911Y-61324D01*
X79855Y-61380D01*
X79742Y-61436D01*
X79405Y-61436D01*
X79292Y-61380D01*
X79236Y-61324D01*
X80417Y-60368D02*
X80473Y-60311D01*
X80586Y-60255D01*
X80867Y-60255D01*
X80980Y-60311D01*
X81036Y-60368D01*
X81092Y-60480D01*
X81092Y-60593D01*
X81036Y-60761D01*
X80361Y-61436D01*
X81092Y-61436D01*
X81542Y-60255D02*
X81542Y-60480D01*
X81992Y-60255D02*
X81992Y-60480D01*
X83735Y-61886D02*
X83679Y-61830D01*
X83567Y-61661D01*
X83510Y-61549D01*
X83454Y-61380D01*
X83398Y-61099D01*
X83398Y-60874D01*
X83454Y-60593D01*
X83510Y-60424D01*
X83567Y-60311D01*
X83679Y-60143D01*
X83735Y-60086D01*
X84748Y-60255D02*
X84185Y-60255D01*
X84129Y-60818D01*
X84185Y-60761D01*
X84298Y-60705D01*
X84579Y-60705D01*
X84692Y-60761D01*
X84748Y-60818D01*
X84804Y-60930D01*
X84804Y-61211D01*
X84748Y-61324D01*
X84692Y-61380D01*
X84579Y-61436D01*
X84298Y-61436D01*
X84185Y-61380D01*
X84129Y-61324D01*
X85535Y-60255D02*
X85648Y-60255D01*
X85760Y-60311D01*
X85816Y-60368D01*
X85873Y-60480D01*
X85929Y-60705D01*
X85929Y-60986D01*
X85873Y-61211D01*
X85816Y-61324D01*
X85760Y-61380D01*
X85648Y-61436D01*
X85535Y-61436D01*
X85423Y-61380D01*
X85366Y-61324D01*
X85310Y-61211D01*
X85254Y-60986D01*
X85254Y-60705D01*
X85310Y-60480D01*
X85366Y-60368D01*
X85423Y-60311D01*
X85535Y-60255D01*
X87335Y-61436D02*
X87335Y-60255D01*
X87841Y-61436D02*
X87841Y-60818D01*
X87785Y-60705D01*
X87672Y-60649D01*
X87504Y-60649D01*
X87391Y-60705D01*
X87335Y-60761D01*
X88572Y-61436D02*
X88460Y-61380D01*
X88404Y-61324D01*
X88347Y-61211D01*
X88347Y-60874D01*
X88404Y-60761D01*
X88460Y-60705D01*
X88572Y-60649D01*
X88741Y-60649D01*
X88854Y-60705D01*
X88910Y-60761D01*
X88966Y-60874D01*
X88966Y-61211D01*
X88910Y-61324D01*
X88854Y-61380D01*
X88741Y-61436D01*
X88572Y-61436D01*
X89641Y-61436D02*
X89528Y-61380D01*
X89472Y-61267D01*
X89472Y-60255D01*
X90541Y-61380D02*
X90428Y-61436D01*
X90203Y-61436D01*
X90091Y-61380D01*
X90035Y-61267D01*
X90035Y-60818D01*
X90091Y-60705D01*
X90203Y-60649D01*
X90428Y-60649D01*
X90541Y-60705D01*
X90597Y-60818D01*
X90597Y-60930D01*
X90035Y-61043D01*
X91047Y-61380D02*
X91160Y-61436D01*
X91384Y-61436D01*
X91497Y-61380D01*
X91553Y-61267D01*
X91553Y-61211D01*
X91497Y-61099D01*
X91384Y-61043D01*
X91216Y-61043D01*
X91103Y-60986D01*
X91047Y-60874D01*
X91047Y-60818D01*
X91103Y-60705D01*
X91216Y-60649D01*
X91384Y-60649D01*
X91497Y-60705D01*
X91947Y-61886D02*
X92003Y-61830D01*
X92116Y-61661D01*
X92172Y-61549D01*
X92228Y-61380D01*
X92284Y-61099D01*
X92284Y-60874D01*
X92228Y-60593D01*
X92172Y-60424D01*
X92116Y-60311D01*
X92003Y-60143D01*
X91947Y-60086D01*
X65164Y-62337D02*
X65164Y-62697D01*
X64984Y-62517D02*
X65344Y-62517D01*
X66638Y-61814D02*
X66750Y-61814D01*
X66863Y-61870D01*
X66919Y-61927D01*
X66975Y-62039D01*
X67031Y-62264D01*
X67031Y-62545D01*
X66975Y-62770D01*
X66919Y-62883D01*
X66863Y-62939D01*
X66750Y-62995D01*
X66638Y-62995D01*
X66525Y-62939D01*
X66469Y-62883D01*
X66413Y-62770D01*
X66356Y-62545D01*
X66356Y-62264D01*
X66413Y-62039D01*
X66469Y-61927D01*
X66525Y-61870D01*
X66638Y-61814D01*
X67537Y-62883D02*
X67594Y-62939D01*
X67537Y-62995D01*
X67481Y-62939D01*
X67537Y-62883D01*
X67537Y-62995D01*
X68156Y-62995D02*
X68381Y-62995D01*
X68494Y-62939D01*
X68550Y-62883D01*
X68662Y-62714D01*
X68719Y-62489D01*
X68719Y-62039D01*
X68662Y-61927D01*
X68606Y-61870D01*
X68494Y-61814D01*
X68269Y-61814D01*
X68156Y-61870D01*
X68100Y-61927D01*
X68044Y-62039D01*
X68044Y-62320D01*
X68100Y-62433D01*
X68156Y-62489D01*
X68269Y-62545D01*
X68494Y-62545D01*
X68606Y-62489D01*
X68662Y-62433D01*
X68719Y-62320D01*
X69843Y-62995D02*
X69169Y-62995D01*
X69506Y-62995D02*
X69506Y-61814D01*
X69393Y-61983D01*
X69281Y-62095D01*
X69169Y-62152D01*
X70350Y-62995D02*
X70350Y-62208D01*
X70350Y-62320D02*
X70406Y-62264D01*
X70518Y-62208D01*
X70687Y-62208D01*
X70800Y-62264D01*
X70856Y-62377D01*
X70856Y-62995D01*
X70856Y-62377D02*
X70912Y-62264D01*
X71025Y-62208D01*
X71193Y-62208D01*
X71306Y-62264D01*
X71362Y-62377D01*
X71362Y-62995D01*
X71924Y-62995D02*
X71924Y-62208D01*
X71924Y-62320D02*
X71981Y-62264D01*
X72093Y-62208D01*
X72262Y-62208D01*
X72374Y-62264D01*
X72431Y-62377D01*
X72431Y-62995D01*
X72431Y-62377D02*
X72487Y-62264D01*
X72599Y-62208D01*
X72768Y-62208D01*
X72881Y-62264D01*
X72937Y-62377D01*
X72937Y-62995D01*
X75243Y-61758D02*
X74230Y-63276D01*
X76761Y-61814D02*
X76874Y-61814D01*
X76986Y-61870D01*
X77043Y-61927D01*
X77099Y-62039D01*
X77155Y-62264D01*
X77155Y-62545D01*
X77099Y-62770D01*
X77043Y-62883D01*
X76986Y-62939D01*
X76874Y-62995D01*
X76761Y-62995D01*
X76649Y-62939D01*
X76593Y-62883D01*
X76536Y-62770D01*
X76480Y-62545D01*
X76480Y-62264D01*
X76536Y-62039D01*
X76593Y-61927D01*
X76649Y-61870D01*
X76761Y-61814D01*
X77661Y-62883D02*
X77717Y-62939D01*
X77661Y-62995D01*
X77605Y-62939D01*
X77661Y-62883D01*
X77661Y-62995D01*
X78449Y-61814D02*
X78561Y-61814D01*
X78674Y-61870D01*
X78730Y-61927D01*
X78786Y-62039D01*
X78842Y-62264D01*
X78842Y-62545D01*
X78786Y-62770D01*
X78730Y-62883D01*
X78674Y-62939D01*
X78561Y-62995D01*
X78449Y-62995D01*
X78336Y-62939D01*
X78280Y-62883D01*
X78224Y-62770D01*
X78167Y-62545D01*
X78167Y-62264D01*
X78224Y-62039D01*
X78280Y-61927D01*
X78336Y-61870D01*
X78449Y-61814D01*
X79236Y-61814D02*
X79967Y-61814D01*
X79573Y-62264D01*
X79742Y-62264D01*
X79855Y-62320D01*
X79911Y-62377D01*
X79967Y-62489D01*
X79967Y-62770D01*
X79911Y-62883D01*
X79855Y-62939D01*
X79742Y-62995D01*
X79405Y-62995D01*
X79292Y-62939D01*
X79236Y-62883D01*
X80980Y-61814D02*
X80755Y-61814D01*
X80642Y-61870D01*
X80586Y-61927D01*
X80473Y-62095D01*
X80417Y-62320D01*
X80417Y-62770D01*
X80473Y-62883D01*
X80530Y-62939D01*
X80642Y-62995D01*
X80867Y-62995D01*
X80980Y-62939D01*
X81036Y-62883D01*
X81092Y-62770D01*
X81092Y-62489D01*
X81036Y-62377D01*
X80980Y-62320D01*
X80867Y-62264D01*
X80642Y-62264D01*
X80530Y-62320D01*
X80473Y-62377D01*
X80417Y-62489D01*
X81542Y-61814D02*
X81542Y-62039D01*
X81992Y-61814D02*
X81992Y-62039D01*
X83735Y-63445D02*
X83679Y-63389D01*
X83567Y-63220D01*
X83510Y-63108D01*
X83454Y-62939D01*
X83398Y-62658D01*
X83398Y-62433D01*
X83454Y-62152D01*
X83510Y-61983D01*
X83567Y-61870D01*
X83679Y-61702D01*
X83735Y-61645D01*
X84129Y-61927D02*
X84185Y-61870D01*
X84298Y-61814D01*
X84579Y-61814D01*
X84692Y-61870D01*
X84748Y-61927D01*
X84804Y-62039D01*
X84804Y-62152D01*
X84748Y-62320D01*
X84073Y-62995D01*
X84804Y-62995D01*
X85254Y-61927D02*
X85310Y-61870D01*
X85423Y-61814D01*
X85704Y-61814D01*
X85816Y-61870D01*
X85873Y-61927D01*
X85929Y-62039D01*
X85929Y-62152D01*
X85873Y-62320D01*
X85198Y-62995D01*
X85929Y-62995D01*
X87335Y-62995D02*
X87335Y-61814D01*
X87841Y-62995D02*
X87841Y-62377D01*
X87785Y-62264D01*
X87672Y-62208D01*
X87504Y-62208D01*
X87391Y-62264D01*
X87335Y-62320D01*
X88572Y-62995D02*
X88460Y-62939D01*
X88404Y-62883D01*
X88347Y-62770D01*
X88347Y-62433D01*
X88404Y-62320D01*
X88460Y-62264D01*
X88572Y-62208D01*
X88741Y-62208D01*
X88854Y-62264D01*
X88910Y-62320D01*
X88966Y-62433D01*
X88966Y-62770D01*
X88910Y-62883D01*
X88854Y-62939D01*
X88741Y-62995D01*
X88572Y-62995D01*
X89641Y-62995D02*
X89528Y-62939D01*
X89472Y-62827D01*
X89472Y-61814D01*
X90541Y-62939D02*
X90428Y-62995D01*
X90203Y-62995D01*
X90091Y-62939D01*
X90035Y-62827D01*
X90035Y-62377D01*
X90091Y-62264D01*
X90203Y-62208D01*
X90428Y-62208D01*
X90541Y-62264D01*
X90597Y-62377D01*
X90597Y-62489D01*
X90035Y-62602D01*
X91047Y-62939D02*
X91160Y-62995D01*
X91384Y-62995D01*
X91497Y-62939D01*
X91553Y-62827D01*
X91553Y-62770D01*
X91497Y-62658D01*
X91384Y-62602D01*
X91216Y-62602D01*
X91103Y-62545D01*
X91047Y-62433D01*
X91047Y-62377D01*
X91103Y-62264D01*
X91216Y-62208D01*
X91384Y-62208D01*
X91497Y-62264D01*
X91947Y-63445D02*
X92003Y-63389D01*
X92116Y-63220D01*
X92172Y-63108D01*
X92228Y-62939D01*
X92284Y-62658D01*
X92284Y-62433D01*
X92228Y-62152D01*
X92172Y-61983D01*
X92116Y-61870D01*
X92003Y-61702D01*
X91947Y-61645D01*
G54D12*
X65286Y-64215D02*
X65286Y-63937D01*
X65008Y-63937D01*
X65008Y-64215D01*
X65286Y-64215D01*
G54D13*
X67031Y-64554D02*
X66356Y-64554D01*
X66694Y-64554D02*
X66694Y-63373D01*
X66581Y-63542D01*
X66469Y-63654D01*
X66356Y-63711D01*
X67537Y-64442D02*
X67594Y-64498D01*
X67537Y-64554D01*
X67481Y-64498D01*
X67537Y-64442D01*
X67537Y-64554D01*
X68325Y-63373D02*
X68437Y-63373D01*
X68550Y-63429D01*
X68606Y-63486D01*
X68662Y-63598D01*
X68719Y-63823D01*
X68719Y-64104D01*
X68662Y-64329D01*
X68606Y-64442D01*
X68550Y-64498D01*
X68437Y-64554D01*
X68325Y-64554D01*
X68212Y-64498D01*
X68156Y-64442D01*
X68100Y-64329D01*
X68044Y-64104D01*
X68044Y-63823D01*
X68100Y-63598D01*
X68156Y-63486D01*
X68212Y-63429D01*
X68325Y-63373D01*
X69450Y-63373D02*
X69562Y-63373D01*
X69675Y-63429D01*
X69731Y-63486D01*
X69787Y-63598D01*
X69843Y-63823D01*
X69843Y-64104D01*
X69787Y-64329D01*
X69731Y-64442D01*
X69675Y-64498D01*
X69562Y-64554D01*
X69450Y-64554D01*
X69337Y-64498D01*
X69281Y-64442D01*
X69225Y-64329D01*
X69169Y-64104D01*
X69169Y-63823D01*
X69225Y-63598D01*
X69281Y-63486D01*
X69337Y-63429D01*
X69450Y-63373D01*
X70350Y-64554D02*
X70350Y-63767D01*
X70350Y-63879D02*
X70406Y-63823D01*
X70518Y-63767D01*
X70687Y-63767D01*
X70800Y-63823D01*
X70856Y-63936D01*
X70856Y-64554D01*
X70856Y-63936D02*
X70912Y-63823D01*
X71025Y-63767D01*
X71193Y-63767D01*
X71306Y-63823D01*
X71362Y-63936D01*
X71362Y-64554D01*
X71924Y-64554D02*
X71924Y-63767D01*
X71924Y-63879D02*
X71981Y-63823D01*
X72093Y-63767D01*
X72262Y-63767D01*
X72374Y-63823D01*
X72431Y-63936D01*
X72431Y-64554D01*
X72431Y-63936D02*
X72487Y-63823D01*
X72599Y-63767D01*
X72768Y-63767D01*
X72881Y-63823D01*
X72937Y-63936D01*
X72937Y-64554D01*
X75243Y-63317D02*
X74230Y-64836D01*
X76761Y-63373D02*
X76874Y-63373D01*
X76986Y-63429D01*
X77043Y-63486D01*
X77099Y-63598D01*
X77155Y-63823D01*
X77155Y-64104D01*
X77099Y-64329D01*
X77043Y-64442D01*
X76986Y-64498D01*
X76874Y-64554D01*
X76761Y-64554D01*
X76649Y-64498D01*
X76593Y-64442D01*
X76536Y-64329D01*
X76480Y-64104D01*
X76480Y-63823D01*
X76536Y-63598D01*
X76593Y-63486D01*
X76649Y-63429D01*
X76761Y-63373D01*
X77661Y-64442D02*
X77717Y-64498D01*
X77661Y-64554D01*
X77605Y-64498D01*
X77661Y-64442D01*
X77661Y-64554D01*
X78449Y-63373D02*
X78561Y-63373D01*
X78674Y-63429D01*
X78730Y-63486D01*
X78786Y-63598D01*
X78842Y-63823D01*
X78842Y-64104D01*
X78786Y-64329D01*
X78730Y-64442D01*
X78674Y-64498D01*
X78561Y-64554D01*
X78449Y-64554D01*
X78336Y-64498D01*
X78280Y-64442D01*
X78224Y-64329D01*
X78167Y-64104D01*
X78167Y-63823D01*
X78224Y-63598D01*
X78280Y-63486D01*
X78336Y-63429D01*
X78449Y-63373D01*
X79236Y-63373D02*
X79967Y-63373D01*
X79573Y-63823D01*
X79742Y-63823D01*
X79855Y-63879D01*
X79911Y-63936D01*
X79967Y-64048D01*
X79967Y-64329D01*
X79911Y-64442D01*
X79855Y-64498D01*
X79742Y-64554D01*
X79405Y-64554D01*
X79292Y-64498D01*
X79236Y-64442D01*
X80530Y-64554D02*
X80755Y-64554D01*
X80867Y-64498D01*
X80923Y-64442D01*
X81036Y-64273D01*
X81092Y-64048D01*
X81092Y-63598D01*
X81036Y-63486D01*
X80980Y-63429D01*
X80867Y-63373D01*
X80642Y-63373D01*
X80530Y-63429D01*
X80473Y-63486D01*
X80417Y-63598D01*
X80417Y-63879D01*
X80473Y-63992D01*
X80530Y-64048D01*
X80642Y-64104D01*
X80867Y-64104D01*
X80980Y-64048D01*
X81036Y-63992D01*
X81092Y-63879D01*
X81542Y-63373D02*
X81542Y-63598D01*
X81992Y-63373D02*
X81992Y-63598D01*
X83735Y-65004D02*
X83679Y-64948D01*
X83567Y-64779D01*
X83510Y-64667D01*
X83454Y-64498D01*
X83398Y-64217D01*
X83398Y-63992D01*
X83454Y-63711D01*
X83510Y-63542D01*
X83567Y-63429D01*
X83679Y-63261D01*
X83735Y-63205D01*
X84073Y-63373D02*
X84804Y-63373D01*
X84410Y-63823D01*
X84579Y-63823D01*
X84692Y-63879D01*
X84748Y-63936D01*
X84804Y-64048D01*
X84804Y-64329D01*
X84748Y-64442D01*
X84692Y-64498D01*
X84579Y-64554D01*
X84242Y-64554D01*
X84129Y-64498D01*
X84073Y-64442D01*
X85816Y-63767D02*
X85816Y-64554D01*
X85535Y-63317D02*
X85254Y-64161D01*
X85985Y-64161D01*
X87335Y-64554D02*
X87335Y-63373D01*
X87841Y-64554D02*
X87841Y-63936D01*
X87785Y-63823D01*
X87672Y-63767D01*
X87504Y-63767D01*
X87391Y-63823D01*
X87335Y-63879D01*
X88572Y-64554D02*
X88460Y-64498D01*
X88404Y-64442D01*
X88347Y-64329D01*
X88347Y-63992D01*
X88404Y-63879D01*
X88460Y-63823D01*
X88572Y-63767D01*
X88741Y-63767D01*
X88854Y-63823D01*
X88910Y-63879D01*
X88966Y-63992D01*
X88966Y-64329D01*
X88910Y-64442D01*
X88854Y-64498D01*
X88741Y-64554D01*
X88572Y-64554D01*
X89641Y-64554D02*
X89528Y-64498D01*
X89472Y-64386D01*
X89472Y-63373D01*
X90541Y-64498D02*
X90428Y-64554D01*
X90203Y-64554D01*
X90091Y-64498D01*
X90035Y-64386D01*
X90035Y-63936D01*
X90091Y-63823D01*
X90203Y-63767D01*
X90428Y-63767D01*
X90541Y-63823D01*
X90597Y-63936D01*
X90597Y-64048D01*
X90035Y-64161D01*
X91047Y-64498D02*
X91160Y-64554D01*
X91384Y-64554D01*
X91497Y-64498D01*
X91553Y-64386D01*
X91553Y-64329D01*
X91497Y-64217D01*
X91384Y-64161D01*
X91216Y-64161D01*
X91103Y-64104D01*
X91047Y-63992D01*
X91047Y-63936D01*
X91103Y-63823D01*
X91216Y-63767D01*
X91384Y-63767D01*
X91497Y-63823D01*
X91947Y-65004D02*
X92003Y-64948D01*
X92116Y-64779D01*
X92172Y-64667D01*
X92228Y-64498D01*
X92284Y-64217D01*
X92284Y-63992D01*
X92228Y-63711D01*
X92172Y-63542D01*
X92116Y-63429D01*
X92003Y-63261D01*
X91947Y-63205D01*
G54D12*
X65144Y-65835D02*
X65344Y-65635D01*
X65144Y-65435D01*
X64944Y-65635D01*
X65144Y-65835D01*
G54D13*
X67031Y-66113D02*
X66356Y-66113D01*
X66694Y-66113D02*
X66694Y-64932D01*
X66581Y-65101D01*
X66469Y-65214D01*
X66356Y-65270D01*
X67537Y-66001D02*
X67594Y-66057D01*
X67537Y-66113D01*
X67481Y-66057D01*
X67537Y-66001D01*
X67537Y-66113D01*
X68325Y-64932D02*
X68437Y-64932D01*
X68550Y-64989D01*
X68606Y-65045D01*
X68662Y-65157D01*
X68719Y-65382D01*
X68719Y-65663D01*
X68662Y-65888D01*
X68606Y-66001D01*
X68550Y-66057D01*
X68437Y-66113D01*
X68325Y-66113D01*
X68212Y-66057D01*
X68156Y-66001D01*
X68100Y-65888D01*
X68044Y-65663D01*
X68044Y-65382D01*
X68100Y-65157D01*
X68156Y-65045D01*
X68212Y-64989D01*
X68325Y-64932D01*
X69169Y-65045D02*
X69225Y-64989D01*
X69337Y-64932D01*
X69618Y-64932D01*
X69731Y-64989D01*
X69787Y-65045D01*
X69843Y-65157D01*
X69843Y-65270D01*
X69787Y-65438D01*
X69112Y-66113D01*
X69843Y-66113D01*
X70350Y-66113D02*
X70350Y-65326D01*
X70350Y-65438D02*
X70406Y-65382D01*
X70518Y-65326D01*
X70687Y-65326D01*
X70800Y-65382D01*
X70856Y-65495D01*
X70856Y-66113D01*
X70856Y-65495D02*
X70912Y-65382D01*
X71025Y-65326D01*
X71193Y-65326D01*
X71306Y-65382D01*
X71362Y-65495D01*
X71362Y-66113D01*
X71924Y-66113D02*
X71924Y-65326D01*
X71924Y-65438D02*
X71981Y-65382D01*
X72093Y-65326D01*
X72262Y-65326D01*
X72374Y-65382D01*
X72431Y-65495D01*
X72431Y-66113D01*
X72431Y-65495D02*
X72487Y-65382D01*
X72599Y-65326D01*
X72768Y-65326D01*
X72881Y-65382D01*
X72937Y-65495D01*
X72937Y-66113D01*
X75243Y-64876D02*
X74230Y-66395D01*
X76761Y-64932D02*
X76874Y-64932D01*
X76986Y-64989D01*
X77043Y-65045D01*
X77099Y-65157D01*
X77155Y-65382D01*
X77155Y-65663D01*
X77099Y-65888D01*
X77043Y-66001D01*
X76986Y-66057D01*
X76874Y-66113D01*
X76761Y-66113D01*
X76649Y-66057D01*
X76593Y-66001D01*
X76536Y-65888D01*
X76480Y-65663D01*
X76480Y-65382D01*
X76536Y-65157D01*
X76593Y-65045D01*
X76649Y-64989D01*
X76761Y-64932D01*
X77661Y-66001D02*
X77717Y-66057D01*
X77661Y-66113D01*
X77605Y-66057D01*
X77661Y-66001D01*
X77661Y-66113D01*
X78449Y-64932D02*
X78561Y-64932D01*
X78674Y-64989D01*
X78730Y-65045D01*
X78786Y-65157D01*
X78842Y-65382D01*
X78842Y-65663D01*
X78786Y-65888D01*
X78730Y-66001D01*
X78674Y-66057D01*
X78561Y-66113D01*
X78449Y-66113D01*
X78336Y-66057D01*
X78280Y-66001D01*
X78224Y-65888D01*
X78167Y-65663D01*
X78167Y-65382D01*
X78224Y-65157D01*
X78280Y-65045D01*
X78336Y-64989D01*
X78449Y-64932D01*
X79855Y-65326D02*
X79855Y-66113D01*
X79573Y-64876D02*
X79292Y-65720D01*
X80023Y-65720D01*
X80698Y-64932D02*
X80811Y-64932D01*
X80923Y-64989D01*
X80980Y-65045D01*
X81036Y-65157D01*
X81092Y-65382D01*
X81092Y-65663D01*
X81036Y-65888D01*
X80980Y-66001D01*
X80923Y-66057D01*
X80811Y-66113D01*
X80698Y-66113D01*
X80586Y-66057D01*
X80530Y-66001D01*
X80473Y-65888D01*
X80417Y-65663D01*
X80417Y-65382D01*
X80473Y-65157D01*
X80530Y-65045D01*
X80586Y-64989D01*
X80698Y-64932D01*
X81542Y-64932D02*
X81542Y-65157D01*
X81992Y-64932D02*
X81992Y-65157D01*
X83735Y-66563D02*
X83679Y-66507D01*
X83567Y-66338D01*
X83510Y-66226D01*
X83454Y-66057D01*
X83398Y-65776D01*
X83398Y-65551D01*
X83454Y-65270D01*
X83510Y-65101D01*
X83567Y-64989D01*
X83679Y-64820D01*
X83735Y-64764D01*
X84692Y-64932D02*
X84467Y-64932D01*
X84354Y-64989D01*
X84298Y-65045D01*
X84185Y-65214D01*
X84129Y-65438D01*
X84129Y-65888D01*
X84185Y-66001D01*
X84242Y-66057D01*
X84354Y-66113D01*
X84579Y-66113D01*
X84692Y-66057D01*
X84748Y-66001D01*
X84804Y-65888D01*
X84804Y-65607D01*
X84748Y-65495D01*
X84692Y-65438D01*
X84579Y-65382D01*
X84354Y-65382D01*
X84242Y-65438D01*
X84185Y-65495D01*
X84129Y-65607D01*
X86210Y-66113D02*
X86210Y-64932D01*
X86716Y-66113D02*
X86716Y-65495D01*
X86660Y-65382D01*
X86548Y-65326D01*
X86379Y-65326D01*
X86266Y-65382D01*
X86210Y-65438D01*
X87447Y-66113D02*
X87335Y-66057D01*
X87279Y-66001D01*
X87223Y-65888D01*
X87223Y-65551D01*
X87279Y-65438D01*
X87335Y-65382D01*
X87447Y-65326D01*
X87616Y-65326D01*
X87729Y-65382D01*
X87785Y-65438D01*
X87841Y-65551D01*
X87841Y-65888D01*
X87785Y-66001D01*
X87729Y-66057D01*
X87616Y-66113D01*
X87447Y-66113D01*
X88516Y-66113D02*
X88404Y-66057D01*
X88347Y-65945D01*
X88347Y-64932D01*
X89416Y-66057D02*
X89303Y-66113D01*
X89079Y-66113D01*
X88966Y-66057D01*
X88910Y-65945D01*
X88910Y-65495D01*
X88966Y-65382D01*
X89079Y-65326D01*
X89303Y-65326D01*
X89416Y-65382D01*
X89472Y-65495D01*
X89472Y-65607D01*
X88910Y-65720D01*
X89922Y-66057D02*
X90035Y-66113D01*
X90260Y-66113D01*
X90372Y-66057D01*
X90428Y-65945D01*
X90428Y-65888D01*
X90372Y-65776D01*
X90260Y-65720D01*
X90091Y-65720D01*
X89978Y-65663D01*
X89922Y-65551D01*
X89922Y-65495D01*
X89978Y-65382D01*
X90091Y-65326D01*
X90260Y-65326D01*
X90372Y-65382D01*
X90822Y-66563D02*
X90878Y-66507D01*
X90991Y-66338D01*
X91047Y-66226D01*
X91103Y-66057D01*
X91160Y-65776D01*
X91160Y-65551D01*
X91103Y-65270D01*
X91047Y-65101D01*
X90991Y-64989D01*
X90878Y-64820D01*
X90822Y-64764D01*
X64284Y-66664D02*
X65344Y-67724D01*
X65344Y-66664D02*
X64284Y-67724D01*
G54D12*
X65344Y-67194D02*
G75*
G03X65344Y-67194I-530J0D01*
G74*
G01*
G54D13*
X66356Y-66604D02*
X66413Y-66548D01*
X66525Y-66491D01*
X66806Y-66491D01*
X66919Y-66548D01*
X66975Y-66604D01*
X67031Y-66716D01*
X67031Y-66829D01*
X66975Y-66998D01*
X66300Y-67672D01*
X67031Y-67672D01*
X67537Y-67560D02*
X67594Y-67616D01*
X67537Y-67672D01*
X67481Y-67616D01*
X67537Y-67560D01*
X67537Y-67672D01*
X68606Y-66491D02*
X68381Y-66491D01*
X68269Y-66548D01*
X68212Y-66604D01*
X68100Y-66773D01*
X68044Y-66998D01*
X68044Y-67447D01*
X68100Y-67560D01*
X68156Y-67616D01*
X68269Y-67672D01*
X68494Y-67672D01*
X68606Y-67616D01*
X68662Y-67560D01*
X68719Y-67447D01*
X68719Y-67166D01*
X68662Y-67054D01*
X68606Y-66998D01*
X68494Y-66941D01*
X68269Y-66941D01*
X68156Y-66998D01*
X68100Y-67054D01*
X68044Y-67166D01*
X69281Y-67672D02*
X69506Y-67672D01*
X69618Y-67616D01*
X69675Y-67560D01*
X69787Y-67391D01*
X69843Y-67166D01*
X69843Y-66716D01*
X69787Y-66604D01*
X69731Y-66548D01*
X69618Y-66491D01*
X69393Y-66491D01*
X69281Y-66548D01*
X69225Y-66604D01*
X69169Y-66716D01*
X69169Y-66998D01*
X69225Y-67110D01*
X69281Y-67166D01*
X69393Y-67223D01*
X69618Y-67223D01*
X69731Y-67166D01*
X69787Y-67110D01*
X69843Y-66998D01*
X70350Y-67672D02*
X70350Y-66885D01*
X70350Y-66998D02*
X70406Y-66941D01*
X70518Y-66885D01*
X70687Y-66885D01*
X70800Y-66941D01*
X70856Y-67054D01*
X70856Y-67672D01*
X70856Y-67054D02*
X70912Y-66941D01*
X71025Y-66885D01*
X71193Y-66885D01*
X71306Y-66941D01*
X71362Y-67054D01*
X71362Y-67672D01*
X71924Y-67672D02*
X71924Y-66885D01*
X71924Y-66998D02*
X71981Y-66941D01*
X72093Y-66885D01*
X72262Y-66885D01*
X72374Y-66941D01*
X72431Y-67054D01*
X72431Y-67672D01*
X72431Y-67054D02*
X72487Y-66941D01*
X72599Y-66885D01*
X72768Y-66885D01*
X72881Y-66941D01*
X72937Y-67054D01*
X72937Y-67672D01*
X75243Y-66435D02*
X74230Y-67954D01*
X76761Y-66491D02*
X76874Y-66491D01*
X76986Y-66548D01*
X77043Y-66604D01*
X77099Y-66716D01*
X77155Y-66941D01*
X77155Y-67223D01*
X77099Y-67447D01*
X77043Y-67560D01*
X76986Y-67616D01*
X76874Y-67672D01*
X76761Y-67672D01*
X76649Y-67616D01*
X76593Y-67560D01*
X76536Y-67447D01*
X76480Y-67223D01*
X76480Y-66941D01*
X76536Y-66716D01*
X76593Y-66604D01*
X76649Y-66548D01*
X76761Y-66491D01*
X77661Y-67560D02*
X77717Y-67616D01*
X77661Y-67672D01*
X77605Y-67616D01*
X77661Y-67560D01*
X77661Y-67672D01*
X78842Y-67672D02*
X78167Y-67672D01*
X78505Y-67672D02*
X78505Y-66491D01*
X78392Y-66660D01*
X78280Y-66773D01*
X78167Y-66829D01*
X79573Y-66491D02*
X79686Y-66491D01*
X79798Y-66548D01*
X79855Y-66604D01*
X79911Y-66716D01*
X79967Y-66941D01*
X79967Y-67223D01*
X79911Y-67447D01*
X79855Y-67560D01*
X79798Y-67616D01*
X79686Y-67672D01*
X79573Y-67672D01*
X79461Y-67616D01*
X79405Y-67560D01*
X79348Y-67447D01*
X79292Y-67223D01*
X79292Y-66941D01*
X79348Y-66716D01*
X79405Y-66604D01*
X79461Y-66548D01*
X79573Y-66491D01*
X80980Y-66491D02*
X80755Y-66491D01*
X80642Y-66548D01*
X80586Y-66604D01*
X80473Y-66773D01*
X80417Y-66998D01*
X80417Y-67447D01*
X80473Y-67560D01*
X80530Y-67616D01*
X80642Y-67672D01*
X80867Y-67672D01*
X80980Y-67616D01*
X81036Y-67560D01*
X81092Y-67447D01*
X81092Y-67166D01*
X81036Y-67054D01*
X80980Y-66998D01*
X80867Y-66941D01*
X80642Y-66941D01*
X80530Y-66998D01*
X80473Y-67054D01*
X80417Y-67166D01*
X81542Y-66491D02*
X81542Y-66716D01*
X81992Y-66491D02*
X81992Y-66716D01*
X83735Y-68122D02*
X83679Y-68066D01*
X83567Y-67897D01*
X83510Y-67785D01*
X83454Y-67616D01*
X83398Y-67335D01*
X83398Y-67110D01*
X83454Y-66829D01*
X83510Y-66660D01*
X83567Y-66548D01*
X83679Y-66379D01*
X83735Y-66323D01*
X84129Y-66604D02*
X84185Y-66548D01*
X84298Y-66491D01*
X84579Y-66491D01*
X84692Y-66548D01*
X84748Y-66604D01*
X84804Y-66716D01*
X84804Y-66829D01*
X84748Y-66998D01*
X84073Y-67672D01*
X84804Y-67672D01*
X86210Y-67672D02*
X86210Y-66491D01*
X86716Y-67672D02*
X86716Y-67054D01*
X86660Y-66941D01*
X86548Y-66885D01*
X86379Y-66885D01*
X86266Y-66941D01*
X86210Y-66998D01*
X87447Y-67672D02*
X87335Y-67616D01*
X87279Y-67560D01*
X87223Y-67447D01*
X87223Y-67110D01*
X87279Y-66998D01*
X87335Y-66941D01*
X87447Y-66885D01*
X87616Y-66885D01*
X87729Y-66941D01*
X87785Y-66998D01*
X87841Y-67110D01*
X87841Y-67447D01*
X87785Y-67560D01*
X87729Y-67616D01*
X87616Y-67672D01*
X87447Y-67672D01*
X88516Y-67672D02*
X88404Y-67616D01*
X88347Y-67504D01*
X88347Y-66491D01*
X89416Y-67616D02*
X89303Y-67672D01*
X89079Y-67672D01*
X88966Y-67616D01*
X88910Y-67504D01*
X88910Y-67054D01*
X88966Y-66941D01*
X89079Y-66885D01*
X89303Y-66885D01*
X89416Y-66941D01*
X89472Y-67054D01*
X89472Y-67166D01*
X88910Y-67279D01*
X89922Y-67616D02*
X90035Y-67672D01*
X90260Y-67672D01*
X90372Y-67616D01*
X90428Y-67504D01*
X90428Y-67447D01*
X90372Y-67335D01*
X90260Y-67279D01*
X90091Y-67279D01*
X89978Y-67223D01*
X89922Y-67110D01*
X89922Y-67054D01*
X89978Y-66941D01*
X90091Y-66885D01*
X90260Y-66885D01*
X90372Y-66941D01*
X90822Y-68122D02*
X90878Y-68066D01*
X90991Y-67897D01*
X91047Y-67785D01*
X91103Y-67616D01*
X91160Y-67335D01*
X91160Y-67110D01*
X91103Y-66829D01*
X91047Y-66660D01*
X90991Y-66548D01*
X90878Y-66379D01*
X90822Y-66323D01*
X63769Y-67979D02*
X65344Y-69554D01*
X65344Y-67979D02*
X63769Y-69554D01*
X64557Y-67979D02*
X64557Y-69554D01*
X63769Y-68766D02*
X65344Y-68766D01*
X66919Y-68457D02*
X66919Y-69244D01*
X66638Y-68007D02*
X66356Y-68851D01*
X67088Y-68851D01*
X67537Y-69132D02*
X67594Y-69188D01*
X67537Y-69244D01*
X67481Y-69188D01*
X67537Y-69132D01*
X67537Y-69244D01*
X68325Y-68063D02*
X68437Y-68063D01*
X68550Y-68119D01*
X68606Y-68176D01*
X68662Y-68288D01*
X68719Y-68513D01*
X68719Y-68794D01*
X68662Y-69019D01*
X68606Y-69132D01*
X68550Y-69188D01*
X68437Y-69244D01*
X68325Y-69244D01*
X68212Y-69188D01*
X68156Y-69132D01*
X68100Y-69019D01*
X68044Y-68794D01*
X68044Y-68513D01*
X68100Y-68288D01*
X68156Y-68176D01*
X68212Y-68119D01*
X68325Y-68063D01*
X69450Y-68063D02*
X69562Y-68063D01*
X69675Y-68119D01*
X69731Y-68176D01*
X69787Y-68288D01*
X69843Y-68513D01*
X69843Y-68794D01*
X69787Y-69019D01*
X69731Y-69132D01*
X69675Y-69188D01*
X69562Y-69244D01*
X69450Y-69244D01*
X69337Y-69188D01*
X69281Y-69132D01*
X69225Y-69019D01*
X69169Y-68794D01*
X69169Y-68513D01*
X69225Y-68288D01*
X69281Y-68176D01*
X69337Y-68119D01*
X69450Y-68063D01*
X70350Y-69244D02*
X70350Y-68457D01*
X70350Y-68569D02*
X70406Y-68513D01*
X70518Y-68457D01*
X70687Y-68457D01*
X70800Y-68513D01*
X70856Y-68626D01*
X70856Y-69244D01*
X70856Y-68626D02*
X70912Y-68513D01*
X71025Y-68457D01*
X71193Y-68457D01*
X71306Y-68513D01*
X71362Y-68626D01*
X71362Y-69244D01*
X71924Y-69244D02*
X71924Y-68457D01*
X71924Y-68569D02*
X71981Y-68513D01*
X72093Y-68457D01*
X72262Y-68457D01*
X72374Y-68513D01*
X72431Y-68626D01*
X72431Y-69244D01*
X72431Y-68626D02*
X72487Y-68513D01*
X72599Y-68457D01*
X72768Y-68457D01*
X72881Y-68513D01*
X72937Y-68626D01*
X72937Y-69244D01*
X75243Y-68007D02*
X74230Y-69525D01*
X76761Y-68063D02*
X76874Y-68063D01*
X76986Y-68119D01*
X77043Y-68176D01*
X77099Y-68288D01*
X77155Y-68513D01*
X77155Y-68794D01*
X77099Y-69019D01*
X77043Y-69132D01*
X76986Y-69188D01*
X76874Y-69244D01*
X76761Y-69244D01*
X76649Y-69188D01*
X76593Y-69132D01*
X76536Y-69019D01*
X76480Y-68794D01*
X76480Y-68513D01*
X76536Y-68288D01*
X76593Y-68176D01*
X76649Y-68119D01*
X76761Y-68063D01*
X77661Y-69132D02*
X77717Y-69188D01*
X77661Y-69244D01*
X77605Y-69188D01*
X77661Y-69132D01*
X77661Y-69244D01*
X78842Y-69244D02*
X78167Y-69244D01*
X78505Y-69244D02*
X78505Y-68063D01*
X78392Y-68232D01*
X78280Y-68344D01*
X78167Y-68401D01*
X79911Y-68063D02*
X79348Y-68063D01*
X79292Y-68626D01*
X79348Y-68569D01*
X79461Y-68513D01*
X79742Y-68513D01*
X79855Y-68569D01*
X79911Y-68626D01*
X79967Y-68738D01*
X79967Y-69019D01*
X79911Y-69132D01*
X79855Y-69188D01*
X79742Y-69244D01*
X79461Y-69244D01*
X79348Y-69188D01*
X79292Y-69132D01*
X80361Y-68063D02*
X81148Y-68063D01*
X80642Y-69244D01*
X81542Y-68063D02*
X81542Y-68288D01*
X81992Y-68063D02*
X81992Y-68288D01*
X83735Y-69694D02*
X83679Y-69638D01*
X83567Y-69469D01*
X83510Y-69357D01*
X83454Y-69188D01*
X83398Y-68907D01*
X83398Y-68682D01*
X83454Y-68401D01*
X83510Y-68232D01*
X83567Y-68119D01*
X83679Y-67951D01*
X83735Y-67894D01*
X84692Y-68457D02*
X84692Y-69244D01*
X84410Y-68007D02*
X84129Y-68851D01*
X84860Y-68851D01*
X86210Y-69244D02*
X86210Y-68063D01*
X86716Y-69244D02*
X86716Y-68626D01*
X86660Y-68513D01*
X86548Y-68457D01*
X86379Y-68457D01*
X86266Y-68513D01*
X86210Y-68569D01*
X87447Y-69244D02*
X87335Y-69188D01*
X87279Y-69132D01*
X87223Y-69019D01*
X87223Y-68682D01*
X87279Y-68569D01*
X87335Y-68513D01*
X87447Y-68457D01*
X87616Y-68457D01*
X87729Y-68513D01*
X87785Y-68569D01*
X87841Y-68682D01*
X87841Y-69019D01*
X87785Y-69132D01*
X87729Y-69188D01*
X87616Y-69244D01*
X87447Y-69244D01*
X88516Y-69244D02*
X88404Y-69188D01*
X88347Y-69076D01*
X88347Y-68063D01*
X89416Y-69188D02*
X89303Y-69244D01*
X89079Y-69244D01*
X88966Y-69188D01*
X88910Y-69076D01*
X88910Y-68626D01*
X88966Y-68513D01*
X89079Y-68457D01*
X89303Y-68457D01*
X89416Y-68513D01*
X89472Y-68626D01*
X89472Y-68738D01*
X88910Y-68851D01*
X89922Y-69188D02*
X90035Y-69244D01*
X90260Y-69244D01*
X90372Y-69188D01*
X90428Y-69076D01*
X90428Y-69019D01*
X90372Y-68907D01*
X90260Y-68851D01*
X90091Y-68851D01*
X89978Y-68794D01*
X89922Y-68682D01*
X89922Y-68626D01*
X89978Y-68513D01*
X90091Y-68457D01*
X90260Y-68457D01*
X90372Y-68513D01*
X90822Y-69694D02*
X90878Y-69638D01*
X90991Y-69469D01*
X91047Y-69357D01*
X91103Y-69188D01*
X91160Y-68907D01*
X91160Y-68682D01*
X91103Y-68401D01*
X91047Y-68232D01*
X90991Y-68119D01*
X90878Y-67951D01*
X90822Y-67894D01*
M02*
