M48
;DRILL file {Pcbnew (2013-07-07 BZR 4022)-stable} date 09-Jan-14 2:10:52 PM
;FORMAT={-:-/ absolute / metric / decimal}
FMAT,2
METRIC,TZ
T1C0.600
T2C0.813
T3C0.914
T4C1.000
T5C1.016
T6C2.692
T7C4.000
%
G90
G05
M71
T1
X191.135Y-76.517
X191.135Y-79.057
X209.306Y-81.788
X209.306Y-84.328
X217.373Y-73.736
X217.373Y-88.976
X219.481Y-102.718
X219.481Y-117.958
X223.063Y-102.768
X223.063Y-118.008
X226.771Y-102.768
X226.771Y-118.008
X233.197Y-87.859
X233.197Y-103.099
X248.336Y-74.219
X248.336Y-89.459
X255.321Y-76.149
X255.321Y-91.389
X258.851Y-76.048
X258.851Y-91.288
X265.303Y-108.839
X265.303Y-124.079
X267.716Y-106.045
X272.4Y-69.317
X272.4Y-71.857
X282.956Y-106.045
T2
X179.895Y-116.84
X179.895Y-121.92
X181.737Y-134.938
X182.181Y-122.174
X182.181Y-127.254
X184.34Y-119.507
X184.34Y-124.587
X184.404Y-127.508
X184.404Y-132.588
X186.69Y-124.841
X186.69Y-129.921
X186.817Y-134.938
X205.746Y-92.426
X205.746Y-94.966
X205.746Y-97.506
X205.746Y-100.046
X205.746Y-102.586
X205.746Y-105.126
X205.746Y-107.666
X205.746Y-110.206
X205.746Y-112.746
X213.366Y-92.426
X213.366Y-94.966
X213.366Y-97.506
X213.366Y-100.046
X213.366Y-102.586
X213.366Y-105.126
X213.366Y-107.666
X213.366Y-110.206
X213.366Y-112.746
X251.206Y-123.253
X261.366Y-123.253
X268.491Y-78.397
X268.491Y-80.937
X268.491Y-83.477
X268.491Y-86.017
X268.491Y-88.557
X268.491Y-91.097
X268.491Y-93.637
X268.491Y-96.177
X275.336Y-64.325
X275.336Y-74.486
X276.111Y-78.397
X276.111Y-80.937
X276.111Y-83.477
X276.111Y-86.017
X276.111Y-88.557
X276.111Y-91.097
X276.111Y-93.637
X276.111Y-96.177
T3
X178.244Y-84.074
X180.784Y-84.074
X203.403Y-71.296
X203.403Y-131.396
X205.943Y-71.296
X205.943Y-131.396
X208.483Y-71.296
X208.483Y-131.396
X211.023Y-71.296
X211.023Y-131.396
X213.543Y-71.296
X213.563Y-131.396
X251.841Y-71.296
X251.841Y-131.396
X254.381Y-71.296
X254.381Y-131.396
X256.921Y-71.296
X256.921Y-131.396
X259.461Y-71.296
X259.461Y-131.396
X261.981Y-71.296
X262.001Y-131.396
T4
X174.988Y-116.826
X174.988Y-119.366
X174.988Y-121.906
X174.988Y-124.446
X174.988Y-126.986
X174.988Y-129.526
X174.988Y-132.066
X174.988Y-134.606
X177.528Y-116.826
X177.528Y-119.366
X177.528Y-121.906
X177.528Y-124.446
X177.528Y-126.986
X177.528Y-129.526
X177.528Y-132.066
X177.528Y-134.606
X178.244Y-78.994
X178.244Y-81.534
X178.244Y-86.614
X178.244Y-89.154
X178.244Y-91.694
X178.244Y-94.234
X178.244Y-96.774
X178.244Y-99.314
X178.244Y-101.854
X180.784Y-78.994
X180.784Y-81.534
X180.784Y-86.614
X180.784Y-89.154
X180.784Y-91.694
X180.784Y-94.234
X180.784Y-96.774
X180.784Y-99.314
X180.784Y-101.854
T5
X270.065Y-126.809
X270.065Y-129.35
X270.065Y-131.889
X278.066Y-126.746
X278.066Y-129.286
X278.066Y-131.826
T6
X179.768Y-70.104
X179.768Y-110.744
T7
X168.91Y-138.557
X169.037Y-64.96
X282.956Y-138.557
X283.083Y-64.834
T0
M30
