G04 (created by PCBNEW (2013-07-07 BZR 4022)-stable) date 11-Jan-14 3:47:01 PM*
%MOIN*%
G04 Gerber Fmt 3.4, Leading zero omitted, Abs format*
%FSLAX34Y34*%
G01*
G70*
G90*
G04 APERTURE LIST*
%ADD10C,0.00590551*%
%ADD11C,0.011811*%
G04 APERTURE END LIST*
G54D10*
G54D11*
X73411Y-40299D02*
X73411Y-39708D01*
X73411Y-39989D02*
X73748Y-39989D01*
X73748Y-40299D02*
X73748Y-39708D01*
X73659Y-33210D02*
X73940Y-33210D01*
X73603Y-33379D02*
X73800Y-32788D01*
X73996Y-33379D01*
X67464Y-33399D02*
X67464Y-32808D01*
X67604Y-32808D01*
X67689Y-32836D01*
X67745Y-32892D01*
X67773Y-32949D01*
X67801Y-33061D01*
X67801Y-33145D01*
X67773Y-33258D01*
X67745Y-33314D01*
X67689Y-33370D01*
X67604Y-33399D01*
X67464Y-33399D01*
X68139Y-33061D02*
X68082Y-33033D01*
X68054Y-33005D01*
X68026Y-32949D01*
X68026Y-32920D01*
X68054Y-32864D01*
X68082Y-32836D01*
X68139Y-32808D01*
X68251Y-32808D01*
X68307Y-32836D01*
X68335Y-32864D01*
X68364Y-32920D01*
X68364Y-32949D01*
X68335Y-33005D01*
X68307Y-33033D01*
X68251Y-33061D01*
X68139Y-33061D01*
X68082Y-33089D01*
X68054Y-33117D01*
X68026Y-33174D01*
X68026Y-33286D01*
X68054Y-33342D01*
X68082Y-33370D01*
X68139Y-33399D01*
X68251Y-33399D01*
X68307Y-33370D01*
X68335Y-33342D01*
X68364Y-33286D01*
X68364Y-33174D01*
X68335Y-33117D01*
X68307Y-33089D01*
X68251Y-33061D01*
X67404Y-40479D02*
X67404Y-39888D01*
X67544Y-39888D01*
X67629Y-39916D01*
X67685Y-39972D01*
X67713Y-40029D01*
X67741Y-40141D01*
X67741Y-40225D01*
X67713Y-40338D01*
X67685Y-40394D01*
X67629Y-40450D01*
X67544Y-40479D01*
X67404Y-40479D01*
X68107Y-39888D02*
X68163Y-39888D01*
X68219Y-39916D01*
X68247Y-39944D01*
X68275Y-40000D01*
X68304Y-40113D01*
X68304Y-40254D01*
X68275Y-40366D01*
X68247Y-40422D01*
X68219Y-40450D01*
X68163Y-40479D01*
X68107Y-40479D01*
X68050Y-40450D01*
X68022Y-40422D01*
X67994Y-40366D01*
X67966Y-40254D01*
X67966Y-40113D01*
X67994Y-40000D01*
X68022Y-39944D01*
X68050Y-39916D01*
X68107Y-39888D01*
X67470Y-31896D02*
X67413Y-31868D01*
X67329Y-31868D01*
X67245Y-31896D01*
X67188Y-31952D01*
X67160Y-32009D01*
X67132Y-32121D01*
X67132Y-32205D01*
X67160Y-32318D01*
X67188Y-32374D01*
X67245Y-32430D01*
X67329Y-32459D01*
X67385Y-32459D01*
X67470Y-32430D01*
X67498Y-32402D01*
X67498Y-32205D01*
X67385Y-32205D01*
X67751Y-32459D02*
X67751Y-31868D01*
X68088Y-32459D01*
X68088Y-31868D01*
X68369Y-32459D02*
X68369Y-31868D01*
X68510Y-31868D01*
X68594Y-31896D01*
X68651Y-31952D01*
X68679Y-32009D01*
X68707Y-32121D01*
X68707Y-32205D01*
X68679Y-32318D01*
X68651Y-32374D01*
X68594Y-32430D01*
X68510Y-32459D01*
X68369Y-32459D01*
X67132Y-30648D02*
X67329Y-31239D01*
X67526Y-30648D01*
X68060Y-31182D02*
X68032Y-31210D01*
X67948Y-31239D01*
X67891Y-31239D01*
X67807Y-31210D01*
X67751Y-31154D01*
X67723Y-31098D01*
X67695Y-30985D01*
X67695Y-30901D01*
X67723Y-30789D01*
X67751Y-30732D01*
X67807Y-30676D01*
X67891Y-30648D01*
X67948Y-30648D01*
X68032Y-30676D01*
X68060Y-30704D01*
X68651Y-31182D02*
X68623Y-31210D01*
X68538Y-31239D01*
X68482Y-31239D01*
X68398Y-31210D01*
X68341Y-31154D01*
X68313Y-31098D01*
X68285Y-30985D01*
X68285Y-30901D01*
X68313Y-30789D01*
X68341Y-30732D01*
X68398Y-30676D01*
X68482Y-30648D01*
X68538Y-30648D01*
X68623Y-30676D01*
X68651Y-30704D01*
M02*
